<svg width="294" height="183" viewBox="0 0 294 183" fill="none" xmlns="http://www.w3.org/2000/svg">
<path d="M177.493 16.2215C177.493 16.8685 176.409 17.3801 175.1 17.3651C173.791 17.3501 172.723 16.8084 172.723 16.1613C172.723 15.5142 173.806 15.0026 175.13 15.0177C176.455 15.0327 177.508 15.5293 177.493 16.2215Z" fill="#111111"/>
<path d="M135.927 146.648C136.218 126.572 126.416 110.152 114.035 109.972C101.653 109.793 91.3801 125.923 91.0893 145.999C90.7984 166.075 100.6 182.496 112.981 182.675C125.363 182.855 135.636 166.725 135.927 146.648Z" fill="#3D4039"/>
<path d="M114.729 147.633C114.548 161.101 109.748 171.951 104.045 171.875C98.342 171.8 93.8578 160.8 94.0534 147.332C94.249 133.865 99.0342 123.06 104.752 123.06C110.47 123.06 114.925 134.166 114.729 147.633Z" fill="#D6E3DD"/>
<path d="M113.69 147.618C113.54 158.257 109.763 166.834 105.249 166.774C100.734 166.714 97.198 158.031 97.3485 147.378C97.499 136.724 101.291 128.162 105.805 128.222C110.32 128.282 113.841 136.98 113.69 147.618Z" fill="#3D4039"/>
<path d="M113.224 156.391L114.353 148.01L108.635 146.505C108.613 146.046 108.568 145.589 108.499 145.135L113.871 140.275L111.779 133.368L107.265 141.374C106.993 140.817 106.632 140.309 106.197 139.869L106.829 125.167L101.818 125.619L102.841 139.598C102.553 139.808 102.295 140.056 102.074 140.335L98.1613 132.089L96.5512 138.108L100.524 143.736C100.524 144.067 100.358 144.383 100.298 144.729L94.61 142.532L94.3693 148.386L100.117 149.274C100.117 149.665 100.208 150.041 100.268 150.417L94.7154 153.036L96.1148 158.377L101.141 153.442C101.41 154.051 101.765 154.618 102.194 155.127L97.3788 164.02L100.539 168.806L104.903 156.165C105.258 156.05 105.589 155.872 105.881 155.639L107.205 169.016L111.629 163.373L107.611 153.156C107.869 152.563 108.075 151.948 108.228 151.32L113.224 156.391Z" fill="#D6E3DD"/>
<path d="M171.204 141.533C171.408 127.39 161.672 115.781 149.457 115.604C137.241 115.427 127.173 126.749 126.968 140.892C126.763 155.035 136.499 166.644 148.715 166.821C160.93 166.998 170.999 155.676 171.204 141.533Z" fill="#3D4039"/>
<path d="M152.077 141.78C151.927 152.404 147.097 160.936 141.318 160.86C135.54 160.785 130.95 152.103 131.101 141.479C131.251 130.855 136.082 122.308 141.86 122.398C147.638 122.489 152.228 131.156 152.077 141.78Z" fill="#D6E3DD"/>
<path d="M49.5721 143.616C49.3463 159.416 40.1973 169.708 24.3972 169.423C8.59705 169.137 -0.235968 156 0.00479625 140.2C0.24556 124.4 9.65039 111.85 25.4656 112.076C41.2807 112.301 49.7978 127.816 49.5721 143.616Z" fill="#3D4039"/>
<path d="M35.1113 144.202C34.9458 155.729 29.2427 163.193 19.4315 163.057C9.62042 162.922 4.15809 153.306 4.3838 141.795C4.60952 130.283 10.4029 121.089 20.2441 121.24C30.0853 121.39 35.2768 132.676 35.1113 144.202Z" fill="#D6E3DD"/>
<path d="M32.6733 143.887C32.5529 153.066 27.9483 159.009 20.0482 158.934C12.1482 158.859 7.75421 151.185 7.88964 142.006C8.02507 132.826 12.7501 125.528 20.6501 125.649C28.5502 125.769 32.7786 134.707 32.6733 143.887Z" fill="#3D4039"/>
<path d="M27.4669 141.84C27.4669 147.648 23.7802 152.373 19.4013 152.253C15.0224 152.133 11.6066 147.423 11.6066 141.614C11.6066 135.806 15.3083 131.081 19.6872 131.186C24.0661 131.292 27.5572 136.017 27.4669 141.84Z" fill="#D6E3DD"/>
<path d="M18.7544 138.605C18.774 138.785 18.7553 138.968 18.6995 139.141C18.6438 139.314 18.5523 139.473 18.4309 139.608C18.3095 139.744 18.161 139.852 17.9951 139.926C17.8292 140 17.6495 140.038 17.4678 140.038C17.2861 140.038 17.1064 140 16.9405 139.926C16.7746 139.852 16.6261 139.744 16.5047 139.608C16.3834 139.473 16.2918 139.314 16.2361 139.141C16.1804 138.968 16.1617 138.785 16.1812 138.605C16.2156 138.287 16.3659 137.994 16.6034 137.781C16.8409 137.568 17.1487 137.45 17.4678 137.45C17.7869 137.45 18.0947 137.568 18.3322 137.781C18.5697 137.994 18.72 138.287 18.7544 138.605Z" fill="#3D4039"/>
<path d="M23.9005 139.312C23.8974 139.569 23.8182 139.818 23.6728 140.03C23.5275 140.241 23.3225 140.405 23.0841 140.499C22.8456 140.594 22.5844 140.616 22.3336 140.562C22.0828 140.507 21.8537 140.38 21.6755 140.195C21.4973 140.011 21.378 139.777 21.3327 139.525C21.2874 139.272 21.3182 139.012 21.4212 138.777C21.5242 138.542 21.6947 138.343 21.9111 138.205C22.1275 138.067 22.38 137.997 22.6365 138.003C22.9771 138.011 23.3008 138.153 23.5375 138.398C23.7741 138.643 23.9045 138.971 23.9005 139.312Z" fill="#3D4039"/>
<path d="M23.2689 145.391C23.261 145.732 23.1191 146.056 22.874 146.292C22.6289 146.529 22.3004 146.659 21.9597 146.655C21.7892 146.655 21.6204 146.621 21.4632 146.555C21.306 146.489 21.1636 146.392 21.0445 146.27C20.9253 146.148 20.8317 146.004 20.7692 145.845C20.7068 145.686 20.6766 145.517 20.6807 145.346C20.6886 145.006 20.8304 144.682 21.0755 144.445C21.3206 144.208 21.6491 144.078 21.9898 144.082C22.3318 144.09 22.6571 144.231 22.8961 144.476C23.1352 144.721 23.269 145.049 23.2689 145.391Z" fill="#3D4039"/>
<path d="M17.6258 144.85C17.6179 145.19 17.476 145.514 17.2309 145.751C16.9858 145.987 16.6573 146.118 16.3166 146.114C16.1461 146.114 15.9773 146.08 15.8201 146.013C15.6629 145.947 15.5206 145.85 15.4014 145.728C15.2822 145.606 15.1887 145.462 15.1262 145.303C15.0637 145.144 15.0336 144.975 15.0376 144.804C15.0455 144.464 15.1874 144.14 15.4325 143.903C15.6776 143.667 16.0061 143.536 16.3467 143.54C16.6887 143.548 17.014 143.69 17.2531 143.934C17.4921 144.179 17.6259 144.508 17.6258 144.85Z" fill="#3D4039"/>
<path d="M22.7567 132.39L19.6418 132.164L19.5365 123.391L23.2382 123.482L22.7567 132.39Z" fill="#D6E3DD"/>
<path d="M20.6955 150.492L17.701 150.191L17.2797 159.476L21.5382 159.792L20.6955 150.492Z" fill="#D6E3DD"/>
<path d="M25.5709 148.672L22.8171 150.492L25.616 158.543L28.9566 156.542L25.5709 148.672Z" fill="#D6E3DD"/>
<path d="M17.7159 133.248L15.0825 135.053L11.6366 126.807L15.4136 124.339L17.7159 133.248Z" fill="#D6E3DD"/>
<path d="M13.1565 137.25L12.5245 141.012L5.43701 139.974L6.05397 135.475L13.1565 137.25Z" fill="#D6E3DD"/>
<path d="M27.4215 142.171L26.7444 145.783L34.1629 147.543L35.0357 142.397L27.4215 142.171Z" fill="#D6E3DD"/>
<path d="M24.382 133.218L26.1125 136.317L32.0714 130.389L29.6186 127.003L24.382 133.218Z" fill="#D6E3DD"/>
<path d="M14.4356 146.851L16.5723 149.454L11.0649 155.849L8.10046 152.088L14.4356 146.851Z" fill="#D6E3DD"/>
<path d="M287.623 147.4C287.865 130.506 276.865 116.651 263.055 116.453C249.244 116.255 237.852 129.79 237.61 146.684C237.368 163.578 248.368 177.433 262.179 177.631C275.99 177.828 287.382 164.294 287.623 147.4Z" fill="#3D4039"/>
<path d="M273.272 147.679C273.061 161.974 265.131 173.455 255.561 173.26C245.99 173.064 238.376 161.477 238.587 147.137C238.797 132.796 246.727 121.345 256.298 121.556C265.868 121.766 273.437 133.368 273.272 147.679Z" fill="#D6E3DD"/>
<path d="M266.335 146.189C266.199 156.256 261.008 164.336 254.763 164.246C248.518 164.156 243.552 155.925 243.703 145.873C243.853 135.821 249.03 127.725 255.274 127.816C261.519 127.906 266.485 136.137 266.335 146.189Z" fill="#3D4039"/>
<path d="M133.117 156.617C133.117 156.617 228.836 161.492 246.923 160.093C265.01 158.693 262.813 143.736 262.813 143.736L133.945 145.722C133.945 145.722 133.147 153.848 133.117 156.617Z" fill="#2A2B2A"/>
<path d="M292.262 146.369C292.262 146.369 287.432 147.317 287.161 142.623L240.227 143.661L237.714 146.821L201.84 147.543L199.177 144.127L139.347 145.361L138.79 146.776C138.257 148.134 137.36 149.319 136.197 150.201C135.035 151.082 133.651 151.626 132.199 151.772L128.708 152.073C126.626 152.233 124.558 151.615 122.904 150.34C121.25 149.064 120.128 147.22 119.755 145.166C117.814 134.768 113.164 114.98 104.857 108.329C103.346 107.036 101.467 106.252 99.4854 106.087C99.4854 106.087 78.4186 108.931 91.7659 155.067L46.9688 153.969C46.9688 153.969 30.1153 147.829 27.9484 144.609C25.7816 141.389 19.7474 94.8008 9.37952 111.594C8.42656 113.774 7.97407 116.139 8.05532 118.516L5.43701 121.435C5.79412 113.638 7.4627 105.956 10.3727 98.7132C10.5984 98.1565 10.8542 97.5997 11.11 97.0279C14.083 89.9781 18.8572 83.8339 24.9539 79.2113C24.9539 79.2113 57.8784 27.6126 85.9424 23.0983C85.9424 23.0983 170.059 8.33647 233.982 22.5265C233.982 22.5265 257.577 47.1897 261.851 57.1363C262.934 59.6643 268.216 61.8763 272.098 63.7122C274.385 64.7956 276.206 65.7587 276.462 66.5712C276.462 66.5712 280.976 80.9418 280.54 87.7133C280.526 88.1032 280.567 88.4932 280.66 88.872C280.858 89.7736 281.35 90.5837 282.06 91.1743C286.499 94.9964 296.912 108.299 292.262 146.369Z" fill="#E59C0A"/>
<path d="M241.973 140.982L198.229 141.825L201.825 147.528L237.714 146.821L241.973 140.982Z" stroke="#111111" stroke-miterlimit="10"/>
<path d="M141.107 19.9984C136.114 20.5355 131.206 21.6879 126.496 23.4293C128.467 19.5169 105.008 20.7659 97.1078 21.3377C120.236 18.1777 178.471 11.331 225.54 20.8863C225.826 21.3829 166.267 17.0641 141.107 19.9984Z" fill="#EA8313"/>
<path d="M125.969 83.2893C133.945 115.266 130.724 121.781 207.227 121.33C207.227 121.33 259.097 120.818 268.487 119.705C272.098 119.283 272.068 106.297 267.96 90.4971C267.96 90.4971 258.149 110.059 230.461 112.452C202.773 114.844 124.465 77.1046 125.969 83.2893Z" fill="#EEBB2D"/>
<path d="M142.326 65.7285C142.326 65.7285 258.389 71.8981 267.117 67.3838C267.117 67.3838 269.495 108.494 258.886 109.773C239.595 112.061 183.768 116.409 160.88 106.989C150.858 102.881 143.786 67.5945 142.326 65.7285Z" fill="#F49211"/>
<path d="M177.132 76.6682C177.132 76.6682 177.794 99.2399 187.665 99.6612L236.043 100.113C236.043 100.113 245.343 102.701 243.251 77.857L177.132 76.6682Z" fill="#EEBB2D"/>
<g style="mix-blend-mode:multiply">
<path d="M243.252 79.5725C243.252 79.0157 243.177 78.4589 243.131 77.857H243.041C243.116 78.4589 243.192 79.0157 243.252 79.5725Z" fill="#EEBB2D"/>
<path d="M237.473 96.456L202.111 99.7966L235.923 100.113C235.923 100.113 241.521 101.617 243.056 90.7529C241.536 97.1332 237.473 96.456 237.473 96.456Z" fill="#E27E05"/>
<path d="M179.705 91.6558C180.242 93.2021 180.965 94.6775 181.857 96.0497C181.014 94.6498 180.294 93.1797 179.705 91.6558Z" fill="#EEBB2D"/>
</g>
<path d="M198.36 79.6336L225.894 80.0277C226.545 80.037 227.165 80.3043 227.618 80.7708C228.071 81.2374 228.321 81.8649 228.312 82.5153L228.133 94.9585C228.124 95.609 227.857 96.2291 227.39 96.6825C226.924 97.1358 226.296 97.3853 225.646 97.376L198.111 96.9819C197.465 96.9726 196.849 96.7069 196.398 96.2433C195.947 95.7796 195.699 95.156 195.709 94.5095L195.887 82.0362C195.896 81.3897 196.162 80.7734 196.626 80.3229C197.089 79.8723 197.713 79.6244 198.36 79.6336Z" fill="#D6E3DD"/>
<path d="M280.66 88.8569C279.787 89.9103 271.752 91.7461 267.373 92.6941C267.009 92.7739 266.632 92.7683 266.271 92.6776C265.91 92.587 265.574 92.4139 265.292 92.1718C265.009 91.9297 264.786 91.6253 264.64 91.2825C264.495 90.9397 264.431 90.5678 264.454 90.1962C264.529 88.1497 264.815 85.3959 265.146 82.4767C265.943 75.3741 267.117 67.4289 267.117 67.4289C266.876 65.6985 271.947 63.8325 271.947 63.8325L272.098 63.7422C274.4 64.8257 276.206 65.7587 276.447 66.5712C277.805 71.0239 278.93 75.5444 279.817 80.1142C280.347 82.6167 280.595 85.1707 280.555 87.7284C280.523 88.1078 280.559 88.4898 280.66 88.8569Z" fill="#D6E3DD"/>
<path d="M102.134 75.5848C102.134 75.5848 86.8451 110.616 85.9723 115.025C85.0996 119.434 84.4676 144.865 84.4676 144.865L27.9783 144.534C25.8115 141.313 19.7773 94.7255 9.40943 111.519C8.45647 113.698 8.00399 116.063 8.08523 118.441L5.46692 121.36C5.82402 113.563 7.49261 105.881 10.4026 98.6379C10.4731 98.0147 10.7301 97.4273 11.1399 96.9526C11.1399 96.9526 15.9101 85.5013 34.6896 80.2045C36.8641 79.5889 39.0691 79.0867 41.2956 78.6997C41.2956 78.6997 57.4268 72.6806 74.1749 67.0226H74.3103C89.9148 61.7409 105.911 56.7601 109.943 57.1664C109.913 57.1513 101.261 69.4303 102.134 75.5848Z" fill="#EEBB2D"/>
<path d="M102.134 75.5848C102.134 75.5848 86.8451 110.616 85.9723 115.025C85.0996 119.434 84.4676 144.865 84.4676 144.865L27.9783 144.534C25.8115 141.313 19.7773 94.7255 9.40943 111.519C8.45647 113.698 8.00399 116.063 8.08523 118.441L5.46692 121.36C5.82402 113.563 7.49261 105.881 10.4026 98.6379C10.4731 98.0147 10.7301 97.4273 11.1399 96.9526C11.1399 96.9526 15.9101 85.5013 34.6896 80.2045C36.8641 79.5889 39.0691 79.0867 41.2956 78.6997C41.2956 78.6997 57.4268 72.6806 74.1749 67.0226H74.3103C89.9148 61.7409 105.911 56.7601 109.943 57.1664C109.913 57.1513 101.261 69.4303 102.134 75.5848Z" fill="#EEBB2D"/>
<path d="M7.90491 118.621L8.05538 118.441C8.05538 118.275 8.05538 118.11 8.05538 117.944C7.99519 118.17 7.95005 118.381 7.90491 118.621Z" fill="#F7D877"/>
<path d="M109.914 57.1513C104.56 58.0104 99.282 59.2884 94.1284 60.9735C94.1284 60.9735 85.5061 63.5316 74.2805 66.9926H74.145C61.3545 70.9802 45.2534 76.1416 34.6598 80.1443C29.7542 81.9951 24.954 83.2892 23.2837 84.4028C23.2837 84.4028 13.9691 92.8145 11.11 96.8924C10.7002 97.3671 10.4432 97.9546 10.3727 98.5778C7.75254 105.176 6.13945 112.13 5.58752 119.208C8.67231 81.5889 103.894 60.4317 107.912 60.8531C107.912 60.8531 111.328 56.9858 109.914 57.1513Z" fill="#F7D877"/>
<path d="M18.4982 112.693C18.4982 112.693 21.1316 105.048 49.6922 101.362C58.2995 100.248 83.3088 93.4164 84.302 104.567C84.4224 106.072 86.4237 110.496 87.4169 109.517C87.4169 109.517 98.7629 89.7899 86.4688 90.1059C86.4538 90.1059 6.80611 88.1948 18.4982 112.693Z" fill="#F7D877"/>
<g style="mix-blend-mode:multiply">
<path d="M168.103 67.2032C168.103 67.2032 162.084 78.173 188.959 77.4507L243.131 77.857C243.131 77.857 252.701 78.3687 254.688 68.8284L168.103 67.2032Z" fill="#EEBB2D"/>
</g>
<path d="M205.111 20.3596L177.471 19.964L177.411 24.207L205.051 24.6026L205.111 20.3596Z" fill="#EEBB2D"/>
<path d="M174.348 15.6196L175.748 16.0409L185.995 0.421338L184.581 0L174.348 15.6196Z" fill="#111111"/>
<path d="M218.332 67.7299C217.776 70.0322 214.315 71.1758 210.568 70.288C206.821 69.4002 204.248 66.827 204.789 64.5247C205.331 62.2224 208.807 61.0637 212.554 61.9516C216.301 62.8394 218.874 65.4276 218.332 67.7299Z" fill="#D6E3DD"/>
<path d="M287.13 143.826L240.197 144.88L237.699 148.025L201.825 148.747L199.161 145.256L139.332 146.49C139.332 146.49 140.46 137.1 159.48 137.085C188.071 137.085 273.979 136.272 273.979 136.272C273.979 136.272 291.118 135.61 287.13 143.826Z" fill="#3D4039"/>
<path d="M193.399 136.754L201.238 148.958L237.774 148.16L245.81 136.348C245.81 136.348 209.771 136.603 193.399 136.754Z" fill="#D6E3DD"/>
<path d="M91.7661 154.992C91.7661 154.992 86.695 123.211 108.078 111.699C108.078 111.699 100.87 98.8636 92.0972 108.058C92.0972 108.013 76.6732 113.746 91.7661 154.992Z" fill="#2A2B2A"/>
<path d="M150.196 91.1141L132.5 88.7064C131.774 88.6129 131.074 88.3709 130.445 87.9956C129.816 87.6202 129.271 87.1195 128.844 86.5245C127.805 85.0197 126.271 82.9582 124.63 80.5054C122.524 77.4056 120.206 73.8694 118.611 70.8749C118.281 70.2744 118.111 69.5993 118.116 68.9142C118.122 68.2291 118.303 67.5569 118.643 66.9619C118.983 66.367 119.47 65.8692 120.057 65.5162C120.644 65.1633 121.312 64.9669 121.997 64.9461L139.919 64.4645C140.808 64.4483 141.683 64.6954 142.433 65.1746C143.182 65.6538 143.774 66.3439 144.132 67.1581L150.497 82.2058L152.845 87.7133C153.016 88.1179 153.076 88.5609 153.019 88.9966C152.962 89.4322 152.789 89.8446 152.519 90.1913C152.249 90.538 151.892 90.8063 151.483 90.9685C151.075 91.1307 150.631 91.181 150.196 91.1141Z" fill="#D6E3DD"/>
<path opacity="0.57" d="M150.197 91.1141L132.5 88.7064C131.774 88.6129 131.074 88.3709 130.445 87.9956C129.816 87.6202 129.271 87.1195 128.844 86.5245C127.806 85.0197 126.271 82.9582 124.63 80.5054L129.762 78.5943C136.476 80.6678 143.431 81.8615 150.452 82.1456L152.8 87.6531C152.983 88.0565 153.054 88.5017 153.005 88.942C152.957 89.3823 152.791 89.8014 152.524 90.1554C152.258 90.5094 151.902 90.7852 151.492 90.9539C151.082 91.1226 150.635 91.1779 150.197 91.1141Z" fill="white"/>
<path d="M65.1161 70.6341C59.8013 79.5586 57.3096 89.8818 57.9685 100.248C57.9685 100.579 57.9685 100.91 57.9685 101.241C59.4732 119.193 59.3077 144.503 59.3077 144.503" stroke="#E59C0A" stroke-width="0.5" stroke-miterlimit="10" stroke-linecap="round"/>
<path d="M261.851 57.1212C249.707 64.6451 132.621 57.362 132.621 57.362C129.37 55.7669 123.592 55.7218 117.799 56.2635C111.722 56.8835 105.691 57.8887 99.7415 59.2731C76.5529 64.8407 28.3851 82.1306 24.5028 84.7188C21.7942 86.4944 10.5234 99.5107 10.5234 99.5107V98.5778C13.4796 90.8332 18.5274 84.0611 25.1047 79.0157C25.1047 79.0157 58.0292 27.417 86.0932 22.9027C86.0932 22.9027 90.141 22.1954 97.1683 21.2324H97.2586C120.387 18.0723 175.356 12.2037 222.892 20.179L225.902 20.7208H226.007C228.746 21.2023 231.454 21.7289 234.133 22.3308C234.705 23.2187 257.652 47.28 261.851 57.1212Z" fill="#434443"/>
<path d="M261.851 57.1212C249.707 64.6451 132.621 57.362 132.621 57.362C131.453 56.8392 130.217 56.4845 128.949 56.3086C125.246 55.8615 121.502 55.8615 117.799 56.3086L109.899 57.1965C109.899 57.1965 115.602 20.0586 138.565 19.9082C138.565 19.9082 200.486 17.7714 225.751 20.8712H225.857C228.615 21.1133 231.34 21.6532 233.982 22.4813C234.208 22.7371 237.067 25.7316 240.889 30.0052C248.233 38.0407 259.082 50.6507 261.851 57.1212Z" fill="#D6E3DD"/>
<path d="M73.6486 66.7066C73.6486 66.7066 84.7237 31.3595 91.5403 26.9204C91.5403 26.9204 112.607 25.0094 115.225 28.4252C115.225 28.4252 100.509 52.5016 101.156 58.8668C101.156 58.8668 73.6486 66.6465 73.6486 67.128" fill="#D6E3DD"/>
<path d="M43.2069 73.1471C43.2069 73.1471 61.3545 67.0226 64.1534 68.7832C64.1534 68.7832 75.3188 35.6782 84.0916 27.4772C84.0916 27.4772 71.3612 28.8315 51.9045 48.6945C47.4203 53.2991 43.854 71.3113 43.2069 73.1471Z" fill="#D6E3DD"/>
<path d="M45.6445 55.9475C45.9755 55.4058 47.2546 53.2991 46.5624 56.5193L42.048 73.5834C42.048 73.5834 37.1425 74.8926 35.8032 71.4617C35.6828 71.4617 43.6582 59.2429 45.6445 55.9475Z" fill="#D6E3DD"/>
<path d="M43.6883 68.0459C43.6883 68.0459 39.3696 66.9324 38.2862 72.5602C38.2862 72.5602 36.5557 78.3385 33.5612 75.976C31.289 74.1854 33.7267 65.3373 33.7267 65.3373C33.7267 65.3373 18.4532 60.0104 17.43 70.589C16.9936 75.1033 20.4395 78.2181 32.7787 78.9254C32.7787 78.9254 39.8812 79.2113 41.2656 78.6696C41.2656 78.7298 43.2068 70.1375 43.6883 68.0459Z" fill="#2A2B2A"/>
<mask id="mask0_11_378" style="mask-type:luminance" maskUnits="userSpaceOnUse" x="109" y="19" width="153" height="42">
<path d="M261.851 57.1212C249.707 64.6451 132.621 57.362 132.621 57.362C131.453 56.8392 130.217 56.4845 128.949 56.3086C125.246 55.8615 121.502 55.8615 117.799 56.3086L109.899 57.1965C109.899 57.1965 115.602 20.0586 138.565 19.9082C138.565 19.9082 200.486 17.7714 225.751 20.8712H225.857C228.615 21.1133 231.34 21.6532 233.982 22.4813C234.208 22.7371 237.067 25.7316 240.889 30.0052C248.233 38.0407 259.082 50.6507 261.851 57.1212Z" fill="white"/>
</mask>
<g mask="url(#mask0_11_378)">
<g opacity="0.51">
<path d="M250.051 -24.3862L225.318 -44.8906L106.306 98.6637L131.039 119.168L250.051 -24.3862Z" fill="white"/>
<path d="M272.644 -7.49462L260.284 -17.742L141.272 125.812L153.632 136.06L272.644 -7.49462Z" fill="white"/>
</g>
</g>
<path d="M240.904 29.945C240.371 29.751 239.865 29.4879 239.4 29.1625C227.707 21.3828 169.608 25.551 146.344 24.1366C116.64 22.3459 129.446 55.8422 129.446 55.8422L109.748 57.6328C109.748 57.6328 116.113 18.1626 138.55 19.863C138.55 19.863 197.236 15.6948 225.736 20.8261H225.841C228.6 21.0682 231.325 21.6081 233.967 22.4362C234.223 22.7221 237.082 25.7166 240.904 29.945Z" fill="#E59C0A"/>
<path d="M161.753 24.5429C161.753 24.5429 142.973 25.2652 141.604 35.8588C141.002 40.5838 137.09 51.6438 151.37 52.2157C151.37 52.2157 190.931 56.5344 192.917 59.89C192.917 59.89 133.975 60.3866 129.34 56.8805C125.789 54.1869 121.621 26.9354 138.369 24.3472C146.112 23.001 154.034 23.0673 161.753 24.5429Z" fill="#434443"/>
<path d="M240.904 29.945C237.082 25.7166 234.223 22.7221 233.997 22.4211C232.219 21.8358 230.39 21.4177 228.535 21.1721C229.769 22.4964 231.544 24.4375 233.681 26.7699C241.009 34.8656 251.874 47.4756 254.643 53.9612C242.484 61.4851 125.819 55.7669 128.964 56.2785C130.378 56.5042 131.056 57.9037 132.636 57.3319C132.636 57.3319 249.722 64.6601 261.866 57.0911C259.082 50.6507 248.232 38.0407 240.904 29.945Z" fill="#3D4039"/>
<mask id="mask1_11_378" style="mask-type:luminance" maskUnits="userSpaceOnUse" x="73" y="26" width="43" height="42">
<path d="M73.6486 66.7066C73.6486 66.7066 84.7237 31.3595 91.5403 26.9204C91.5403 26.9204 112.607 25.0094 115.225 28.4252C115.225 28.4252 100.509 52.5016 101.156 58.8668C101.156 58.8668 73.6486 66.6465 73.6486 67.128" fill="white"/>
</mask>
<g mask="url(#mask1_11_378)">
<g opacity="0.51">
<path d="M119.824 29.0171L115.072 19.4986L59.8059 47.0896L64.5578 56.6081L119.824 29.0171Z" fill="white"/>
<path d="M124.422 37.1627L122.042 32.3967L66.7759 59.9877L69.1553 64.7537L124.422 37.1627Z" fill="white"/>
</g>
</g>
<mask id="mask2_11_378" style="mask-type:luminance" maskUnits="userSpaceOnUse" x="43" y="27" width="42" height="47">
<path d="M43.2069 73.1471C43.2069 73.1471 61.3545 67.0226 64.1534 68.7832C64.1534 68.7832 75.3188 35.6782 84.0916 27.4772C84.0916 27.4772 71.3612 28.8315 51.9045 48.6945C47.4203 53.2991 43.854 71.3113 43.2069 73.1471Z" fill="white"/>
</mask>
<g mask="url(#mask2_11_378)">
<g opacity="0.51">
<path d="M90.0254 38.8179L85.8839 29.0184L28.9856 53.0649L33.1271 62.8644L90.0254 38.8179Z" fill="white"/>
<path d="M94.0944 47.2478L92.0208 42.3411L35.1224 66.3876L37.1961 71.2943L94.0944 47.2478Z" fill="white"/>
</g>
</g>
</svg>
