<?xml version="1.0" encoding="utf-8"?>
<!-- Generator: Adobe Illustrator 27.5.0, SVG Export Plug-In . SVG Version: 6.00 Build 0)  -->
<svg version="1.1" id="Capa_1" xmlns="http://www.w3.org/2000/svg" xmlns:xlink="http://www.w3.org/1999/xlink" x="0px" y="0px"
	 viewBox="0 0 2521 1786" style="enable-background:new 0 0 2521 1786;" xml:space="preserve">
<g>
	<path style="fill:#FFD353;" d="M2370.454,1045.153c-4.856-18.093-14.947-23.742-14.889-27.093
		c0.389-22.082,0.174-43.795-0.682-64.766c0.004,0,0.011,0,0.016,0c10.142,0,2.508-95.031-9.818-95.206
		c-10.606-57.716-29.684-99.63-59.76-110.65c-53.971-19.768-225.932-68.901-278.916-101.605
		c-53.008-32.698-169.379-135.012-254.981-158.657c-85.593-23.628-581.773-50.626-672.91-16.874
		c-91.138,33.754-248.982,171.373-379.273,226.919c-85.96,36.642-415.033,84.589-462.281,152.094
		c-30.359,43.353-52.842,105.12-64.568,160.755c-0.625,2.966-10.904,2.324-17.387,13.399c-6.482,11.072-12.041,75.348-4.063,94.5
		c7.385,17.719,59.852,37.543,134.389,37.543c19,0,40.2,0,63.31,0c11.285,0,23.042,0,35.227,0
		c0.002,97.076,78.698,175.775,175.795,175.775c97.086,0,175.783-78.699,175.784-175.775c11.648,0,23.396,0,35.245,0
		c332.618,0,741.547,0,1053.694,0c11.886,0,23.632,0,35.227,0c0.002,97.076,78.698,175.775,175.795,175.775
		c97.086,0,175.783-78.699,175.784-175.775c12.964,0,24.758,0,35.245,0c27.662,0,46.418,0,54.625,0
		c31.473,0,65.347-12.169,69.236-41.62C2372.061,1100.53,2375.313,1063.245,2370.454,1045.153z"/>
	<path style="fill:#F18A00;" d="M559.667,946.995c-115.727,0-209.601,93.131-211.025,208.516c11.286,0,23.042,0,35.228,0
		c0-0.001,0-0.002,0-0.003c0-97.099,78.696-175.806,175.795-175.806c97.087,0,175.784,78.707,175.784,175.806
		c0,0.001,0,0.002,0,0.003c11.648,0,23.395,0,35.244,0C769.255,1040.127,675.4,946.995,559.667,946.995z"/>
	<path style="fill:#352E35;" d="M559.664,979.702c-97.099,0-175.795,78.707-175.795,175.806c0,0.001,0,0.002,0,0.003
		c0.001,97.077,78.697,175.775,175.795,175.775c97.086,0,175.782-78.698,175.784-175.775c0-0.001,0-0.002,0-0.003
		C735.448,1058.41,656.751,979.702,559.664,979.702z"/>
	<path style="fill:#999999;" d="M559.667,1038.141c-64.823,0-117.362,52.539-117.362,117.367
		c0,64.797,52.539,117.362,117.362,117.362c64.806,0,117.347-52.565,117.347-117.362
		C677.015,1090.68,624.473,1038.141,559.667,1038.141z"/>
	<path style="fill:#CCCCCC;" d="M559.667,1058.422c-53.609,0-97.09,43.466-97.09,97.09c0,53.595,43.481,97.07,97.09,97.07
		c53.618,0,97.073-43.475,97.073-97.07C656.74,1101.888,613.286,1058.422,559.667,1058.422z"/>
	<path style="fill:#F18A00;" d="M2035.412,946.995c-115.727,0-209.601,93.131-211.026,208.516c11.886,0,23.632,0,35.228,0
		c0-0.001,0-0.002,0-0.003c0-97.099,78.696-175.806,175.795-175.806c97.087,0,175.784,78.707,175.784,175.806
		c0,0.001,0,0.002,0,0.003c12.963,0,24.758,0,35.244,0C2244.999,1040.127,2151.144,946.995,2035.412,946.995z"/>
	<path style="fill:#352E35;" d="M2035.409,979.702c-97.099,0-175.795,78.707-175.795,175.806c0,0.001,0,0.002,0,0.003
		c0.001,97.077,78.697,175.775,175.795,175.775c97.086,0,175.782-78.698,175.784-175.775c0-0.001,0-0.002,0-0.003
		C2211.193,1058.41,2132.496,979.702,2035.409,979.702z"/>
	<path style="fill:#999999;" d="M2035.412,1038.141c-64.823,0-117.362,52.539-117.362,117.367
		c0,64.797,52.539,117.362,117.362,117.362c64.806,0,117.347-52.565,117.347-117.362
		C2152.759,1090.68,2100.218,1038.141,2035.412,1038.141z"/>
	<path style="fill:#CCCCCC;" d="M2035.412,1058.422c-53.609,0-97.09,43.466-97.09,97.09c0,53.595,43.481,97.07,97.09,97.07
		c53.618,0,97.073-43.475,97.073-97.07C2132.484,1101.888,2089.03,1058.422,2035.412,1058.422z"/>
	<path style="fill:#EA5B0C;" d="M2345.083,858.089c-0.011,0-0.023-0.008-0.034-0.008c-12.322,0-47.761,17.424-60.103,31.966
		c-12.339,14.51-17.401,58.541-12.027,61.385c5.38,2.844,71.793,1.865,81.965,1.864c0.005,0,0.012,0,0.016,0
		C2365.042,953.295,2357.408,858.264,2345.083,858.089z"/>
	<path style="fill:#EA5B0C;" d="M279.146,935.431c-8.818,0-62.033-3.88-73.936-3.88c-11.885,0-27.955,71.03-25.102,76.413
		c2.845,5.374,66.698,0.165,81.211-12.181c14.542-12.339,32.646-33.745,32.646-46.094
		C293.965,937.361,287.949,935.431,279.146,935.431z"/>
	<path style="fill:#FBBA00;" d="M218.498,997.627c9.776-8.291-10.826-39.866-18.827-39.866c-7.988,0-18.269,43.296-16.351,46.913
		C185.233,1008.285,208.743,1005.927,218.498,997.627z"/>
	<path style="fill:#F18A00;" d="M928.647,671.998c-8.68-17.227-20.748-23.687-35.716-23.934
		c-11.945-0.198-25.734,3.554-41.149,9.005c-48.426,17.126-69.138,34.509-69.138,69.213c0,34.669,67.277,40.228,109.794,28.152
		c12.876-3.658,22.284-10.327,28.938-18.467C937.184,716.63,937.115,688.808,928.647,671.998z"/>
	<path style="fill:#352E35;" d="M1383.919,805.013c0-8.52-8.783-15.442-19.603-15.442h-92.914c-10.82,0-19.58,6.922-19.58,15.442
		c0,8.52,8.76,15.424,19.58,15.424h92.914C1375.137,820.437,1383.919,813.532,1383.919,805.013z"/>
	<path style="fill:#352E35;" d="M1812.14,805.013c0-8.52-8.786-15.442-19.606-15.442h-92.911c-10.82,0-19.583,6.922-19.583,15.442
		c0,8.52,8.763,15.424,19.583,15.424h92.911C1803.354,820.437,1812.14,813.532,1812.14,805.013z"/>
	<path style="fill:#EA5B0C;" d="M299.342,1011.286c7.541,0,13.659-6.115,13.659-13.659c0-7.542-6.118-13.656-13.659-13.656
		c-7.545,0-13.659,6.115-13.659,13.656C285.683,1005.171,291.797,1011.286,299.342,1011.286z"/>
	
		<ellipse transform="matrix(0.9829 -0.184 0.184 0.9829 -138.9604 445.657)" style="fill:#CA280E;" cx="2332.536" cy="971.802" rx="10.372" ry="10.372"/>
	<path style="fill:#FBBA00;" d="M2342.908,863.145c-6.685-3.427-50.377,25.188-53.832,31.61c-3.458,6.419,31.607,7.9,43.46,7.9
		c11.853,0,21.733,0,21.238-5.927S2349.595,866.568,2342.908,863.145z"/>
	<path style="fill:#3B1B16;" d="M756.277,743.959c0.789-0.217,1.253-1.032,1.036-1.821c-0.216-0.789-1.031-1.253-1.821-1.036
		c-15.02,4.125-30.1,8.027-45.179,11.93c-2.436-3.921-4.786-7.877-7.321-11.758c-0.448-0.685-1.365-0.878-2.051-0.43
		s-0.878,1.365-0.43,2.051l0,0c2.356,3.608,4.534,7.287,6.805,10.929c-145.338,37.472-293.306,64.735-442.477,81.313
		c-0.814,0.091-1.4,0.824-1.309,1.637c0.091,0.813,0.823,1.399,1.637,1.309c149.618-16.629,298.026-44,443.788-81.627
		c70.826,114.939,99.575,246.999,99.578,389.853c0,0.818,0.663,1.482,1.482,1.482s1.482-0.663,1.482-1.482
		c0.002-142.921-28.711-275.316-99.545-390.644C726.745,751.831,741.541,748.006,756.277,743.959z"/>
	<path style="fill:#60C6F2;" d="M1381.419,484.838c-5.768-0.243-11.468-0.473-17.132-0.696c-0.733-0.029-1.468-0.058-2.198-0.087
		c-5.652-0.22-11.261-0.432-16.802-0.63c-0.097-0.004-0.197-0.007-0.293-0.011l-0.001,0.001c-12.936-0.461-25.52-0.851-37.777-1.169
		l0.004-0.004c-0.264-0.007-0.515-0.011-0.778-0.018c-5.272-0.136-10.43-0.247-15.564-0.353c-1.487-0.031-3.02-0.072-4.495-0.1
		c-6.556-0.124-12.999-0.224-19.309-0.294c-0.23-0.003-0.459-0.005-0.689-0.008c-4.031-0.043-8.012-0.075-11.936-0.094
		c-0.231-0.001-0.464-0.003-0.695-0.004c-8.135-0.037-16.038-0.02-23.685,0.056c-0.494,0.005-0.98,0.012-1.472,0.017
		c-3.199,0.035-6.351,0.081-9.458,0.137c-0.694,0.012-1.389,0.025-2.078,0.038c-3.3,0.065-6.553,0.142-9.745,0.232
		c-0.183,0.005-0.374,0.008-0.556,0.013l-0.001,0.001c-42.804,1.241-75.644,4.83-94.346,11.965
		c-43.295,16.512-142.053,91.967-219.483,154.231c14.968,0.247,27.036,6.707,35.716,23.934c8.468,16.811,8.537,44.632-7.271,63.969
		c11.572,0.059,24.078,0.122,37.428,0.186c-0.113-0.209-0.269-0.396-0.269-0.651c0-0.818,0.663-1.482,1.482-1.482h43.317h100.757
		h38.722h38.606h175.686c0.818,0,1.482,0.663,1.482,1.482c0,0.818-0.664,1.482-1.482,1.482c0,0-47.305,0.289,20.069,0.289
		c6.549-3.536,13.486-8.444,16.953-14.56c7.57-13.52,7.359-201.701,0-221.95C1391.475,493.491,1386.588,488.407,1381.419,484.838z"
		/>
	<path style="fill:#60C6F2;" d="M1911.828,632.01c-35.459-26.242-129.776-99.79-201.03-122.07c-1.597,3.145-1.971,7.77,0.501,14.643
		c7.182,19.915,108.68,190.423,121.514,201.698c4.376,3.829,9.79,6.864,15.025,9.22c4.066,0,7.049,0,8.849,0
		C1884.617,735.502,1926.168,642.642,1911.828,632.01z"/>
	<path style="fill:#60C6F2;" d="M1759.296,723.717c-0.059,5.333-1.304,9.067-2.845,11.793h-9.779
		c-0.178-0.118-0.356-0.236-0.593-0.236h-242.757c-0.237,0-0.415,0.118-0.593,0.236h-23.114c-4.564-2.844-8.831-6.519-11.498-11.261
		c-3.023-5.393-2.904-11.853-3.438-17.898c-0.592-6.816-1.067-13.573-1.482-20.388c-0.77-13.395-1.185-26.908-1.482-40.361v-0.534
		c-1.303-59.385-0.296-133.35,4.92-145.204c2.726-6.342,6.993-10.49,11.438-13.276c37.99,2.371,73.906,5.156,104.903,8.179
		c7.883,0.771,15.35,1.542,22.462,2.371c0.356,0,0.712,0.059,1.067,0.118c2.963,0.296,5.808,0.652,8.653,0.949
		c0.711,0.118,1.422,0.177,2.133,0.296c3.082,0.355,6.164,0.711,9.128,1.126c8.594,5.571,18.788,13.927,26.729,25.662
		c0.296,0.474,0.711,1.067,1.126,1.779c0.474,0.711,0.948,1.482,1.482,2.37c3.556,5.69,9.364,15.41,16.416,27.619
		c0.238,0.356,0.475,0.771,0.652,1.126c1.363,2.311,2.726,4.741,4.148,7.23c0.356,0.593,0.711,1.185,1.067,1.837
		c1.838,3.201,3.734,6.461,5.69,9.898c0.119,0.237,0.296,0.474,0.415,0.712c1.303,2.311,2.667,4.682,4.03,7.053
		C1719.469,640.032,1759.415,713.641,1759.296,723.717z"/>
	<path style="fill:#3B1B16;" d="M1567.028,735.267h-38.605h-25.129c-0.221,0-0.377,0.148-0.566,0.235
		c-0.509,0.234-0.916,0.65-0.916,1.247c0,0.819,0.663,1.482,1.482,1.482h242.794c0.818,0,1.482-0.663,1.482-1.482
		c0-0.597-0.407-1.013-0.916-1.247c-0.188-0.087-0.344-0.235-0.565-0.235H1567.028z"/>
	<path style="fill:#3B1B16;" d="M1812.14,1067.121h-378.483V487.874c0-0.818-0.664-1.482-1.482-1.482
		c-0.819,0-1.482,0.664-1.482,1.482v579.247H873.09c-0.819,0-1.482,0.663-1.482,1.482c0,0.818,0.663,1.482,1.482,1.482h557.603
		v63.781c0,0.818,0.663,1.482,1.482,1.482c0.818,0,1.482-0.664,1.482-1.482v-63.781h378.483c0.818,0,1.482-0.664,1.482-1.482
		C1813.621,1067.784,1812.958,1067.121,1812.14,1067.121z"/>
	<path style="fill:#3B1B16;" d="M1278.081,835.129c-0.818,0-1.482,0.664-1.482,1.482c0,0.818,0.663,1.482,1.482,1.482h90.877
		c0.818,0,1.482-0.663,1.482-1.482c0-0.818-0.664-1.482-1.482-1.482H1278.081z"/>
	<path style="fill:#3B1B16;" d="M1700.852,835.129c-0.819,0-1.482,0.664-1.482,1.482c0,0.818,0.663,1.482,1.482,1.482h96.801
		c0.818,0,1.482-0.663,1.482-1.482c0-0.818-0.664-1.482-1.482-1.482H1700.852z"/>
	<path style="fill:#3B1B16;" d="M1890.916,952.806c-0.002-98.225,33.607-196.23,94.063-273.666c0.503-0.645,0.389-1.576-0.256-2.079
		c-0.646-0.504-1.576-0.389-2.08,0.256c-60.87,77.976-94.688,176.59-94.69,275.49c-0.001,3.042,0.032,6.085,0.096,9.127
		c0.017,0.818,0.695,1.468,1.513,1.45c0.818-0.017,1.467-0.694,1.45-1.512l0,0C1890.948,958.849,1890.916,955.828,1890.916,952.806z
		"/>
	<path style="fill:#FFE67A;" d="M891.99,1008.872c31.792,24.928,75.727,25.756,116.094,24.075
		c66.024-2.746,132.187-9.203,198.052-3.861c28.322,2.298,56.614,6.777,85.002,5.461c28.386-1.32,57.6-9.102,78.662-28.178
		c21.062-19.08,31.789-51.176,20.278-77.16c-10.404-23.489-35.41-36.801-59.715-45.127c-24.303-8.326-50.307-13.769-71.06-28.916
		c-24.995-18.246-39.186-48.346-63.891-66.979c-34.313-25.877-81.22-24.723-124.134-22.422c-39.892,2.141-79.787,4.28-119.679,6.421
		c-39.849,2.135-79.845,3.426-119.637,6.416c-28.487,2.141-28.452,28.201-21.154,50.038c5.081,15.204,13.138,29.185,18.486,44.317
		c5.626,15.917,9.637,32.31,14.293,48.519c8.227,28.638,18.457,58.584,40.1,80.057
		C886.31,1004.138,889.081,1006.592,891.99,1008.872z"/>
	<path style="fill:#FFE67A;" d="M1756.97,873.939c-31.702-1.062-65.263-8.508-87.404-31.225
		c-12.421-12.742-20.457-29.523-34.18-40.847c-31.101-25.663-75.881-14.626-112.567-13.969c-15.08,0.269-31.737-1.855-45.622,5.527
		c-12.713,6.757-15.949,20.095-15.815,33.546c0.275,27.414-2.295,54.764-1.875,82.169c0.642,42.251,13.393,89.424,50.36,109.893
		c26.939,14.915,59.698,11.833,90.382,14.429c32.162,2.717,63.497,12.09,95.678,14.559c32.18,2.469,67.234-3.22,90.226-25.868
		c23.409-23.059,29.28-58.057,33.948-90.585c1.757-12.244,3.354-25.472-2.521-36.356
		C1806.884,875.403,1779.47,874.695,1756.97,873.939z"/>
	<path style="fill:#FFE67A;" d="M2271.073,871.902c11.943-24.659,23.544-55.36,7.73-77.733
		c-8.607-12.178-23.279-18.246-37.155-23.71c-56.555-22.263-113.11-44.525-169.663-66.788c-17.222-6.78-37.308-15.189-55.352-6.117
		c-17.875,8.985-25.903,30.227-33.095,47.509c-12.504,30.053-22.862,61-30.95,92.529c-3.747,14.609-6.592,31.535,2.46,43.597
		c7.244,9.651,19.933,13.095,31.662,15.931c72.029,17.419,144.058,34.836,216.089,52.255c8.149,1.971,17.068,3.872,24.633,0.254
		c7.455-3.565,11.575-11.535,15.178-18.972C2252.097,911.071,2261.583,891.485,2271.073,871.902z"/>
	<path style="fill:#FFE67A;" d="M2324.124,1026.531c-15.185-5.541-32.348,0.365-46.844-7.938
		c-6.528-3.742-11.558-9.362-17.021-14.414c-2.96-2.738-6.453-5.811-10.814-4.827c-8.236,1.861-10.58,14.594-11.355,21.415
		c-1.508,13.271,2.532,23.687,6.913,35.913c6.23,17.384,10.34,35.749,19.866,51.766c9.469,15.92,25.952,29.381,44.459,28.702
		c15.21-0.561,29.017-10.901,36.237-24.3c7.22-13.398,8.511-29.376,6.326-44.438
		C2349.361,1050.99,2340.659,1032.568,2324.124,1026.531z"/>
	<path style="fill:#FFE67A;" d="M729.565,875.869c-14.319-30.476-40.737-57.273-73.904-63.09c-17.963-3.148-36.362-0.02-54.33,3.105
		c-99.446,17.303-198.891,34.605-298.334,51.908c-13.304,2.316-29.932,8.277-30.111,21.777c-0.148,11.355,12.27,18.63,23.423,20.755
		c11.153,2.127,23.498,1.956,32.46,8.93c15.216,11.836,12.362,37.491,26.809,50.253c10.395,9.182,26.109,8.45,39.664,5.524
		c39.722-8.572,75.027-30.938,113.577-43.788c41.84-13.945,87.399-15.557,130.39-6.141c21.641,4.743,42.679,12.276,62.358,22.462
		c9.836,5.096,19.265,10.884,28.346,17.222c8.997,6.279,17.045,2.801,19.019-8.424c2.138-12.178-3.106-28.167-5.834-40.046
		C739.907,902.441,735.627,888.773,729.565,875.869z"/>
	<path style="fill:#FFE67A;" d="M275.514,1049.315c-18.156,1.577-36.562,0.42-54.359-3.522c-14.325-3.171-31.416-7.408-42.002,2.749
		c-10.389,9.969-7.021,27.695,0.833,39.762c11.353,17.436,29.836,29.26,49.399,36.338c19.565,7.076,40.378,9.851,61.003,12.58
		c9.397,1.242,19.766,2.275,27.611-3.05c11.223-7.622,12.684-24.308,13.885-36.567c1.062-10.861,1.563-22.622-3.864-32.516
		C317.628,1046.143,293.881,1047.72,275.514,1049.315z"/>
	<path style="fill:#3B1B16;" d="M868.776,744.208c15.214-0.609,29.755-9.384,37.381-22.562c3.967-6.867,5.949-14.766,5.949-22.659
		c-0.001-7.266-1.681-14.535-5.076-20.996c-0.381-0.724-1.277-1.003-2.001-0.622c-0.724,0.38-1.003,1.276-0.622,2
		c3.155,6.005,4.735,12.808,4.735,19.618c0,7.398-1.865,14.795-5.552,21.177c-7.07,12.265-20.784,20.541-34.931,21.084
		c-0.818,0.032-1.455,0.721-1.422,1.539C867.268,743.603,867.958,744.24,868.776,744.208z"/>
	<path style="fill:#AFDFF9;" d="M1104.091,734.02l203.125-251.773l0.004-0.004c-0.264-0.007-0.515-0.011-0.778-0.018
		c-5.272-0.136-10.43-0.247-15.564-0.353c-1.487-0.031-3.02-0.072-4.495-0.1c-6.556-0.124-12.999-0.224-19.309-0.294
		c-0.23-0.003-0.459-0.005-0.689-0.008c-4.031-0.043-8.012-0.075-11.936-0.094c-0.231-0.001-0.464-0.003-0.695-0.004
		c-8.135-0.037-16.038-0.02-23.685,0.056c-0.494,0.005-0.98,0.012-1.472,0.017c-3.199,0.035-6.351,0.081-9.458,0.137
		c-0.694,0.012-1.389,0.025-2.078,0.038c-3.3,0.065-6.553,0.142-9.745,0.232c-0.183,0.005-0.374,0.008-0.556,0.013l-0.001,0.001
		L1003.334,734.02H1104.091z"/>
	<path style="fill:#AFDFF9;" d="M1181.419,734.02l200.631-248.687l-0.631-0.495c-5.768-0.243-11.468-0.473-17.132-0.696
		c-0.733-0.029-1.468-0.058-2.198-0.087c-5.652-0.22-11.261-0.432-16.802-0.63c-0.097-0.004-0.197-0.007-0.293-0.011l-0.001,0.001
		l-202.18,250.605H1181.419z"/>
	<path style="fill:#AFDFF9;" d="M1655.757,529.44L1489.513,735.51h-9.897c-4.564-2.844-8.831-6.519-11.498-11.261
		c-3.023-5.393-2.904-11.853-3.438-17.898c-0.592-6.816-1.067-13.573-1.482-20.388c-0.77-13.395-1.185-26.908-1.482-40.361v-0.534
		l121.26-150.301c7.883,0.771,15.35,1.542,22.462,2.371c0.356,0,0.712,0.059,1.067,0.118c2.963,0.296,5.808,0.652,8.653,0.949
		c0.711,0.118,1.422,0.177,2.133,0.296c3.082,0.355,6.164,0.711,9.128,1.126c8.594,5.571,18.788,13.927,26.729,25.662
		c0.296,0.474,0.711,1.067,1.126,1.779C1654.749,527.781,1655.223,528.551,1655.757,529.44z"/>
	<path style="fill:#AFDFF9;" d="M1528.424,735.267h38.605l121.197-150.224l0.001-0.001c-0.023-0.041-0.046-0.08-0.069-0.121
		c-1.354-2.386-2.688-4.728-4.004-7.035c-0.141-0.248-0.282-0.495-0.423-0.741c-4.092-7.171-7.98-13.926-11.545-20.072
		L1528.424,735.267z"/>
	<path style="fill:#3B1B16;" d="M1357.105,736.983c0.818,0,1.482-0.664,1.482-1.482c0-0.818-0.664-1.482-1.482-1.482h-175.686
		h-38.606h-38.722h-100.757h-43.317c-0.819,0-1.482,0.663-1.482,1.482c0,0.254,0.156,0.442,0.269,0.651
		c0.251,0.464,0.648,0.831,1.213,0.831h217.031h1.98H1357.105z"/>
</g>
</svg>
