<svg width="345" height="143" viewBox="0 0 345 143" fill="none" xmlns="http://www.w3.org/2000/svg">
<g clip-path="url(#clip0_11_568)">
<path d="M344.606 98.317C344.606 98.317 344.502 100.049 344.201 102.466C343.505 108.264 341.752 118.086 337.797 119.061C337.797 119.061 329.64 120.835 328.062 119.87C328.062 119.87 328.716 92.3635 306.164 85.3001C292.807 81.1512 266.871 80.9645 263.042 120.97C263.042 120.97 110.551 117.288 100.235 118.968C100.235 118.968 96.2392 118.242 97.0591 112.008C97.0989 110.836 97.0746 109.662 96.9865 108.492C96.478 100.132 92.887 79.4502 70.6149 74.7205C70.6149 74.7205 38.6804 67.3771 31.9033 103.244C31.592 104.934 31.3221 106.708 31.1353 108.585C30.9485 110.463 30.7928 112.413 30.7098 114.477C30.7098 114.477 18.4632 117.319 13.4089 113.18C13.4089 113.18 0.747247 113.263 0.518922 112.589L0 109.052L0.33211 108.648C1.46336 107.268 4.86749 102.777 1.93039 102.424C0.510495 95.2908 0.23723 87.9766 1.12087 80.7571C2.82294 68.5595 9.1434 55.501 28.1048 53.9971C28.1048 53.9971 73.9048 44.7452 86.4524 38.3249C109.285 26.6355 147.903 2.25073 204.569 5.41422C229.031 6.79371 269.414 6.27512 302.127 15.0603C303.142 16.4707 303.888 18.0566 304.327 19.7381C304.327 19.7381 327.014 43.6976 328.291 44.9112C329.391 45.9484 330.449 46.913 331.404 47.9191C332.917 49.3922 334.306 50.988 335.556 52.6902C339.344 57.8763 340.745 63.975 336.791 73.1232C336.884 73.1232 347.138 90.092 344.606 98.317Z" fill="#EEBB2D"/>
<path d="M38.5456 115.939L30.7098 114.498C30.7098 114.498 27.7312 74.5338 63.6406 73.87C77.309 73.6211 100.38 82.7589 97.163 117.049C97.163 117.049 94.1117 122.868 87.8743 123.791C87.8743 123.791 105.642 93.048 71.3726 81.2653C59.3024 77.0543 35.4528 86.0157 38.5456 115.939Z" fill="#2A2B2A"/>
<path d="M267.909 120.586L262.865 120.845C262.865 120.845 260.136 85.0822 294.447 82.4685C308.084 81.4313 330.771 92.8406 328.062 119.912C328.062 119.912 327.564 117.194 323.465 118.48C323.465 118.48 323.683 99.5202 303.372 91.3159C291.52 86.5032 268.428 91.0981 267.909 120.586Z" fill="#2A2B2A"/>
<path d="M93.6578 108.619C94.3664 93.3752 82.1765 80.425 66.4309 79.6939C50.6853 78.9628 37.3465 90.7278 36.6379 105.972C35.9292 121.216 48.1191 134.166 63.8647 134.897C79.6103 135.628 92.9491 123.863 93.6578 108.619Z" fill="#3D4039"/>
<path d="M84.7464 108.835C85.2678 97.6195 76.4769 88.0998 65.1115 87.5721C53.746 87.0443 44.1098 95.7085 43.5884 106.924C43.0671 118.139 51.8579 127.659 63.2234 128.187C74.5888 128.715 84.2251 120.05 84.7464 108.835Z" fill="#D6E3DD"/>
<path d="M78.6374 107.994C78.4847 110.788 77.508 113.473 75.8303 115.713C74.1527 117.952 71.8492 119.645 69.2102 120.578C66.5712 121.512 63.7149 121.643 61.0013 120.956C58.2877 120.269 55.8382 118.795 53.9617 116.719C52.0852 114.643 50.8656 112.059 50.4567 109.291C50.0477 106.524 50.4678 103.697 51.6638 101.168C52.8599 98.6384 54.7784 96.5196 57.1776 95.0783C59.5768 93.637 62.3492 92.9378 65.1454 93.0688C68.9143 93.2619 72.4523 94.9425 74.9821 97.7411C77.5119 100.54 78.8266 104.227 78.6374 107.994Z" fill="#3D4039"/>
<path d="M81.8548 111.396L82.436 106.003L71.3103 105.422C71.2567 105.22 71.1873 105.022 71.1027 104.831L79.8206 98.3481L76.4372 94.0749L68.1345 101.408C67.9532 101.301 67.7661 101.204 67.574 101.118L69.3073 90.1438L63.9001 89.5941L63.1528 100.516C62.8725 100.566 62.5953 100.631 62.3226 100.713L55.5247 91.8967L51.3733 95.4543L58.6382 103.296C58.2939 103.762 58.0114 104.271 57.7976 104.81L46.8483 103.856L46.6719 109.28H57.6523C57.7041 109.457 57.7664 109.623 57.8287 109.789L49.1523 116.987L52.847 120.97L60.745 113.149C61.0423 113.322 61.3509 113.474 61.6687 113.605L59.3647 124.465L64.7096 125.419L66.2041 113.948L66.8164 113.771L66.6919 113.865L73.0954 123.137L77.4647 119.901L70.2621 111.22C70.5649 110.797 70.8191 110.341 71.0197 109.861L81.8548 111.396Z" fill="#D6E3DD"/>
<path d="M63.1943 103.679C63.1796 103.985 63.0747 104.279 62.8929 104.524C62.7112 104.77 62.4606 104.956 62.1729 105.059C61.8853 105.163 61.5734 105.179 61.2767 105.105C60.98 105.031 60.7119 104.871 60.5061 104.645C60.3003 104.42 60.1662 104.138 60.1206 103.836C60.075 103.534 60.12 103.225 60.25 102.948C60.3799 102.672 60.589 102.44 60.8507 102.282C61.1125 102.124 61.4151 102.047 61.7205 102.061C61.9237 102.071 62.123 102.12 62.3071 102.206C62.4911 102.293 62.6563 102.415 62.7932 102.565C62.9301 102.715 63.036 102.891 63.1048 103.082C63.1736 103.273 63.204 103.476 63.1943 103.679Z" fill="#C6C6C6" stroke="#3D4039" stroke-width="0.1" stroke-miterlimit="10"/>
<path d="M69.8053 104.717C69.7927 105.022 69.6895 105.317 69.5089 105.564C69.3282 105.812 69.0783 105.999 68.7907 106.104C68.5031 106.209 68.1909 106.227 67.8934 106.154C67.596 106.081 67.3268 105.922 67.12 105.697C66.9132 105.471 66.7781 105.189 66.7317 104.887C66.6853 104.584 66.7299 104.275 66.8596 103.998C66.9894 103.721 67.1985 103.488 67.4606 103.33C67.7226 103.172 68.0258 103.095 68.3316 103.109C68.74 103.128 69.1243 103.307 69.4005 103.609C69.6767 103.91 69.8222 104.308 69.8053 104.717Z" fill="#C6C6C6" stroke="#3D4039" stroke-width="0.1" stroke-miterlimit="10"/>
<path d="M68.6222 111.261C68.6076 111.567 68.5027 111.861 68.3209 112.106C68.1391 112.352 67.8886 112.538 67.6009 112.641C67.3133 112.745 67.0014 112.761 66.7047 112.687C66.408 112.613 66.1399 112.453 65.9341 112.228C65.7283 112.002 65.5941 111.72 65.5485 111.418C65.503 111.116 65.548 110.807 65.6779 110.53C65.8079 110.254 66.017 110.022 66.2787 109.864C66.5404 109.706 66.8431 109.629 67.1485 109.643C67.3521 109.651 67.5521 109.7 67.7368 109.786C67.9215 109.872 68.0873 109.993 68.2244 110.144C68.3616 110.295 68.4674 110.471 68.5357 110.663C68.604 110.855 68.6334 111.058 68.6222 111.261Z" fill="#C6C6C6" stroke="#3D4039" stroke-width="0.1" stroke-miterlimit="10"/>
<path d="M61.9489 110.214C61.9334 110.521 61.8266 110.817 61.6421 111.063C61.4576 111.309 61.2038 111.495 60.9132 111.596C60.6225 111.697 60.3083 111.709 60.0107 111.631C59.713 111.553 59.4456 111.387 59.2425 111.156C59.0394 110.925 58.9099 110.639 58.8707 110.334C58.8314 110.028 58.8841 109.719 59.0221 109.444C59.16 109.169 59.3769 108.941 59.645 108.79C59.9131 108.639 60.2202 108.571 60.527 108.596C60.9281 108.628 61.3009 108.814 61.5663 109.117C61.8318 109.419 61.969 109.812 61.9489 110.214Z" fill="#C6C6C6" stroke="#3D4039" stroke-width="0.1" stroke-miterlimit="10"/>
<path d="M324.482 116.686C323.766 131.933 310.429 143.653 294.685 142.959C278.941 142.264 266.757 129.278 267.463 114.041C268.169 98.8045 281.515 87.0737 297.259 87.7686C313.003 88.4636 325.177 101.449 324.482 116.686Z" fill="#3D4039"/>
<path d="M315.565 116.876C316.089 105.661 307.299 96.1394 295.934 95.6097C284.569 95.08 274.931 103.742 274.408 114.958C273.884 126.173 282.674 135.694 294.039 136.224C305.404 136.754 315.042 128.091 315.565 116.876Z" fill="#D6E3DD"/>
<path d="M309.454 116.022C309.301 118.813 308.326 121.496 306.65 123.734C304.974 125.972 302.672 127.664 300.036 128.596C297.399 129.529 294.546 129.661 291.834 128.976C289.123 128.29 286.675 126.818 284.8 124.744C282.924 122.671 281.705 120.089 281.295 117.324C280.885 114.559 281.303 111.735 282.497 109.207C283.691 106.68 285.606 104.562 288.002 103.12C290.399 101.679 293.168 100.978 295.962 101.107C299.729 101.3 303.265 102.979 305.795 105.776C308.324 108.572 309.64 112.257 309.454 116.022Z" fill="#3D4039"/>
<path d="M312.723 119.435L313.304 114.041L302.189 113.46C302.127 113.253 302.054 113.056 301.981 112.859L310.689 106.387L307.316 102.144L299.013 109.477C298.837 109.374 298.65 109.27 298.453 109.177L300.176 98.2237L294.779 97.674L294.042 108.596C293.764 108.639 293.49 108.705 293.222 108.793L286.414 99.9766L282.262 103.524L289.527 111.365C289.183 111.835 288.9 112.348 288.687 112.89L277.737 111.936L277.561 117.36H288.541C288.593 117.533 288.655 117.703 288.728 117.868L280.041 125.067L283.736 129.05L291.634 121.229C291.935 121.402 292.247 121.554 292.568 121.685L290.254 132.545L295.599 133.499L297.093 122.028C297.3 121.976 297.505 121.914 297.705 121.841L297.581 121.945L303.984 131.217L308.354 127.981L301.151 119.3C301.456 118.878 301.71 118.422 301.909 117.941L312.723 119.435Z" fill="#D6E3DD"/>
<path d="M294.042 111.707C294.029 112.013 293.926 112.308 293.745 112.555C293.565 112.802 293.315 112.99 293.027 113.095C292.74 113.2 292.427 113.217 292.13 113.145C291.833 113.072 291.563 112.913 291.357 112.687C291.15 112.462 291.015 112.18 290.968 111.878C290.922 111.575 290.966 111.266 291.096 110.989C291.226 110.711 291.435 110.479 291.697 110.321C291.959 110.163 292.262 110.086 292.568 110.1C292.977 110.119 293.361 110.298 293.637 110.6C293.913 110.901 294.059 111.299 294.042 111.707Z" fill="#C6C6C6" stroke="#3D4039" stroke-width="0.1" stroke-miterlimit="10"/>
<path d="M300.622 112.745C300.609 113.05 300.506 113.345 300.325 113.592C300.145 113.84 299.895 114.027 299.607 114.132C299.32 114.237 299.007 114.255 298.71 114.182C298.413 114.109 298.143 113.95 297.937 113.725C297.73 113.499 297.595 113.217 297.548 112.915C297.502 112.612 297.546 112.303 297.676 112.026C297.806 111.749 298.015 111.516 298.277 111.358C298.539 111.2 298.842 111.123 299.148 111.137C299.557 111.156 299.941 111.336 300.217 111.637C300.493 111.938 300.639 112.336 300.622 112.745Z" fill="#C6C6C6" stroke="#3D4039" stroke-width="0.1" stroke-miterlimit="10"/>
<path d="M299.449 119.3C299.434 119.605 299.329 119.899 299.148 120.145C298.966 120.39 298.715 120.576 298.428 120.68C298.14 120.783 297.828 120.799 297.531 120.725C297.235 120.652 296.967 120.492 296.761 120.266C296.555 120.04 296.421 119.758 296.375 119.456C296.33 119.154 296.375 118.845 296.505 118.569C296.635 118.292 296.844 118.06 297.105 117.902C297.367 117.744 297.67 117.668 297.975 117.682C298.385 117.703 298.769 117.885 299.045 118.188C299.321 118.491 299.466 118.891 299.449 119.3Z" fill="#C6C6C6" stroke="#3D4039" stroke-width="0.1" stroke-miterlimit="10"/>
<path d="M292.765 118.242C292.753 118.548 292.649 118.843 292.469 119.09C292.288 119.337 292.038 119.525 291.751 119.63C291.463 119.735 291.151 119.752 290.853 119.679C290.556 119.607 290.287 119.448 290.08 119.222C289.873 118.996 289.738 118.714 289.692 118.412C289.645 118.109 289.69 117.8 289.82 117.523C289.949 117.246 290.158 117.013 290.421 116.855C290.683 116.697 290.986 116.62 291.292 116.634C291.7 116.653 292.084 116.833 292.36 117.134C292.637 117.435 292.782 117.834 292.765 118.242Z" fill="#C6C6C6" stroke="#3D4039" stroke-width="0.1" stroke-miterlimit="10"/>
<path d="M331.477 47.919H331.404C327.979 48.2924 315.556 45.2119 315.556 45.2119C308.592 44.9941 300.279 44.9423 290.98 45.0149C239.005 45.4505 156.061 49.9623 102.238 53.1984C71.1026 55.0862 49.7334 56.5382 49.7334 56.5382C34.1658 67.6468 1.22464 80.8193 1.22464 80.8193L1.11047 80.7675C2.81254 68.5699 9.133 55.5114 28.0944 54.0075C28.0944 54.0075 36.065 52.3894 46.2671 50.0453C60.527 46.7885 79.2082 42.0795 86.4731 38.3456C109.306 26.6562 147.924 2.27149 204.59 5.43497C229.052 6.81446 269.435 6.29584 302.147 15.081C303.163 16.4914 303.909 18.0773 304.348 19.7588C304.908 20.3604 324.191 40.7416 327.782 44.3822C328.031 44.6518 328.208 44.8178 328.291 44.9008C329.422 45.9172 330.481 46.913 331.477 47.919Z" fill="#E59C0A"/>
<path d="M198.072 59.0898C197.969 61.382 193.07 63.0208 187.134 62.7511C181.197 62.4815 176.475 60.3863 176.579 58.0837C176.682 55.7811 181.581 54.1527 187.518 54.4223C193.454 54.692 198.176 56.7872 198.072 59.0898Z" fill="#F49211"/>
<path d="M283.331 55.1588C283.228 57.451 278.329 59.0898 272.392 58.8201C266.456 58.5505 261.734 56.4553 261.848 54.1527C261.962 51.8501 266.85 50.2217 272.787 50.4913C278.723 50.761 283.445 52.8562 283.331 55.1588Z" fill="#F49211"/>
<path d="M315.639 66.8377C315.576 68.2007 315.11 69.5144 314.3 70.6125C313.49 71.7107 312.372 72.544 311.087 73.007C309.803 73.4701 308.41 73.5421 307.085 73.2139C305.76 72.8857 304.562 72.1722 303.643 71.1634C302.723 70.1547 302.124 68.8961 301.921 67.5469C301.717 66.1977 301.919 64.8185 302.5 63.5838C303.081 62.3491 304.015 61.3143 305.184 60.6104C306.354 59.9064 307.706 59.565 309.07 59.6292C310.897 59.7152 312.616 60.5228 313.848 61.8745C315.08 63.2262 315.724 65.0114 315.639 66.8377Z" fill="#F49211"/>
<path d="M104.417 35.0473C104.417 35.0473 71.3207 51.9849 85.1136 52.6798L102.248 53.2607C102.248 53.2607 101.532 42.9819 104.417 35.0473Z" fill="#EEBB2D"/>
<path d="M336.884 73.1232C331.124 73.5692 313.263 56.2374 313.263 56.2374C306.496 47.3071 334.964 52.5865 334.964 52.5865L335.649 52.7006C339.437 57.9177 340.859 63.9958 336.884 73.1232Z" fill="#D6E3DD"/>
<path d="M135.532 21.771C143.835 18.8565 179.329 7.2501 202.681 10.9114C202.857 10.9456 203.025 11.0153 203.174 11.1161C203.322 11.217 203.449 11.347 203.546 11.4983C203.643 11.6496 203.709 11.819 203.738 11.9963C203.768 12.1735 203.761 12.3549 203.718 12.5295C202.463 17.7778 197.917 36.6861 195.312 44.683C195.085 45.3887 194.649 46.0088 194.062 46.4608C193.474 46.9129 192.762 47.1755 192.022 47.2138L132.055 50.5121L128.547 41.0216L133.083 24.2188C133.281 23.6533 133.604 23.1396 134.028 22.7159C134.452 22.2921 134.966 21.9692 135.532 21.771Z" fill="#D6E3DD"/>
<path d="M135.532 21.771C143.835 18.8565 179.329 7.2501 202.681 10.9114C202.857 10.9456 203.025 11.0153 203.174 11.1161C203.322 11.217 203.449 11.347 203.546 11.4983C203.643 11.6496 203.709 11.819 203.738 11.9963C203.768 12.1735 203.761 12.3549 203.718 12.5295C202.463 17.7778 197.917 36.6861 195.312 44.683C195.085 45.3887 194.649 46.0088 194.062 46.4608C193.474 46.9129 192.762 47.1755 192.022 47.2138L132.055 50.5121L128.547 41.0216L133.083 24.2188C133.281 23.6533 133.604 23.1396 134.028 22.7159C134.452 22.2921 134.966 21.9692 135.532 21.771Z" fill="#D6E3DD"/>
<path d="M135.532 21.771C143.835 18.8565 179.329 7.2501 202.681 10.9114C202.857 10.9456 203.025 11.0153 203.174 11.1161C203.322 11.217 203.449 11.347 203.546 11.4983C203.643 11.6496 203.709 11.819 203.738 11.9963C203.768 12.1735 203.761 12.3549 203.718 12.5295C202.463 17.7778 197.917 36.6861 195.312 44.683C195.085 45.3887 194.649 46.0088 194.062 46.4608C193.474 46.9129 192.762 47.1755 192.022 47.2138L132.055 50.5121L128.547 41.0216L133.083 24.2188C133.281 23.6533 133.604 23.1396 134.028 22.7159C134.452 22.2921 134.966 21.9692 135.532 21.771Z" fill="#D6E3DD"/>
<path d="M135.532 21.771C143.835 18.8565 179.329 7.2501 202.681 10.9114C202.857 10.9456 203.025 11.0153 203.174 11.1161C203.322 11.217 203.449 11.347 203.546 11.4983C203.643 11.6496 203.709 11.819 203.738 11.9963C203.768 12.1735 203.761 12.3549 203.718 12.5295C202.463 17.7778 197.917 36.6861 195.312 44.683C195.085 45.3887 194.649 46.0088 194.062 46.4608C193.474 46.9129 192.762 47.1755 192.022 47.2138L132.055 50.5121L128.547 41.0216L133.083 24.2188C133.281 23.6533 133.604 23.1396 134.028 22.7159C134.452 22.2921 134.966 21.9692 135.532 21.771Z" fill="#D6E3DD"/>
<path d="M31.1353 108.596C30.9277 110.452 30.7928 112.423 30.7098 114.487C30.7098 114.487 18.4632 117.329 13.4089 113.191C13.4089 113.191 0.747247 113.274 0.518922 112.599L0 109.063C0 109.063 26.2263 109.488 30.5749 108.617C30.7579 108.569 30.9492 108.562 31.1353 108.596Z" fill="#F49211"/>
<path d="M12.5372 105.764C12.5372 105.764 4.1099 109.301 0.332153 108.668C1.4634 107.289 4.86753 102.798 1.93043 102.445C1.93043 102.445 5.52137 83.1012 13.6581 81.8669C13.6581 81.8669 19.0964 105.484 12.5372 105.764Z" fill="#F49211"/>
<path d="M12.5371 105.764C10.9803 100.578 13.658 81.9084 13.658 81.9084C13.658 81.9084 19.0963 105.484 12.5371 105.764Z" fill="#E27E05"/>
<path d="M265.698 90.9632C262.107 90.7973 260.312 83.1738 260.312 83.1738C261.028 75.6748 253.462 77.0439 250.577 76.266C204.133 63.7054 121.511 75.4881 104.023 75.7681C102.591 75.7681 90.3132 80.4667 90.3236 80.7364C82.519 71.4015 69.9611 68.7773 62.0734 69.3271C28.2916 71.5674 31.6023 103.067 31.6023 103.067L31.9033 103.275C38.6804 67.4082 70.6149 74.7517 70.6149 74.7517C88.9225 78.6412 97.5988 94.2512 96.9865 108.523C97.0592 107.973 112.907 111.127 114.63 110.784L199.598 112.983L246.145 114.197C246.145 114.197 253.691 115.773 257.894 105.526C258.091 105.049 258.278 104.488 258.465 104.001C260.758 99.9627 263.338 96.0944 266.186 92.4257C266.186 91.5026 266.02 90.9632 265.698 90.9632Z" fill="#E59C0A"/>
<path d="M115.356 106.521C115.356 106.521 182.816 92.7057 235.912 102.165L115.356 106.521Z" fill="#F7D877"/>
<path d="M22.3032 71.64C22.3032 71.64 47.0662 85.2067 85.6117 50.7714L49.7127 56.5486C49.7127 56.5486 34.4149 66.008 22.3032 71.64Z" fill="#EEBB2D"/>
<path d="M327.813 44.3926C327.492 44.2681 327.159 44.1125 326.775 43.9466C316.468 39.09 308.452 30.4209 304.42 19.7692C304.939 20.3708 324.222 40.752 327.813 44.3926Z" fill="#F49211"/>
<path d="M272.247 9.6564C272.247 9.6564 277.187 5.67352 278.028 10.6936L272.247 9.6564Z" fill="#111111"/>
<path d="M283.788 0.300192L283.382 -0.00686646L276.61 8.91928L277.016 9.22634L283.788 0.300192Z" fill="#111111"/>
<path d="M344.201 102.507C343.505 108.305 341.752 118.128 337.797 119.103C337.797 119.103 329.64 120.876 328.062 119.912C328.062 119.912 328.716 92.4049 306.164 85.3415C292.807 81.1927 266.871 81.006 263.041 121.011C263.041 121.011 110.551 117.329 100.235 119.009C100.235 119.009 96.2392 118.283 97.0591 112.05C97.0591 112.05 97.1214 110.266 96.9761 108.088C96.9761 108.088 234.366 94.6038 257.842 105.546C257.842 105.546 271.168 72.9469 304.202 80.5911C312.962 82.5759 320.68 87.7251 325.873 95.0498C325.873 95.0498 337.289 105.266 343.827 102.611C343.945 102.556 344.071 102.521 344.201 102.507Z" fill="#F49211"/>
<path d="M52.0893 53.0844C52.0893 53.0844 86.6599 46.1973 95.8552 39.6006C95.8552 39.6006 73.7076 52.6072 85.0305 51.8293C148.059 47.5353 291.281 44.5689 291.292 44.8697C291.644 52.3583 49.1833 56.5901 49.1833 56.5901C49.1833 56.5901 52.9403 55.5218 52.0893 53.0844Z" fill="#F7D877"/>
<path d="M302.168 15.081C302.168 15.081 292.89 16.5538 290.524 18.3482C290.219 18.5769 289.865 18.7308 289.49 18.7974C289.115 18.8641 288.73 18.8417 288.365 18.732C275.574 14.9181 262.486 12.1841 249.238 10.5588C249.238 10.5588 278.308 10.9218 302.168 15.081Z" fill="#E27E05"/>
<path d="M49.7439 56.5383L49.4014 56.8806C49.2778 57.0196 49.1461 57.1512 49.007 57.2747C34.1139 71.889 12.3088 70.3643 12.3088 70.3643C12.4034 67.9836 13.0182 65.6525 14.1101 63.5346C15.202 61.4167 16.7445 59.5633 18.6293 58.1045C20.8202 56.3715 23.3158 55.0629 25.9876 54.246C26.5584 54.049 27.15 53.8726 27.7519 53.7171C27.7519 53.7171 36.117 52.4102 46.3293 50.0557L46.4539 50.1179C46.4539 50.1179 57.1022 52.9495 49.7439 56.5383Z" fill="#E0E9EF"/>
<path d="M257.873 105.484C253.722 115.732 246.125 114.155 246.125 114.155L199.598 112.983L114.64 110.774C113.206 111.085 111.735 111.194 110.271 111.095L105.652 107.33C105.652 107.33 227.485 94.3549 257.178 105.256C257.375 105.38 257.634 105.484 257.873 105.484Z" fill="#E27E05"/>
<path d="M276.108 83.2982C272.673 84.9785 269.154 88.6399 266.165 92.4257C263.318 96.0944 260.737 99.9627 258.444 104.001C258.257 104.54 258.07 105.038 257.873 105.526C253.722 115.773 246.125 114.197 246.125 114.197L199.598 112.983L114.64 110.774C113.206 111.085 111.735 111.194 110.271 111.095C102.892 110.504 104.231 103.026 104.231 103.026C100.899 95.0602 99.8199 85.9017 99.7576 77.6247C99.7282 69.4041 100.563 61.2032 102.248 53.157C112.762 51.2381 159.423 49.1326 203.729 47.5145C248.626 45.8654 291.115 44.7037 291.115 44.7037C295.827 70.219 276.108 83.2982 276.108 83.2982Z" stroke="#E27E05" stroke-miterlimit="10"/>
<path d="M203.438 47.8983C203.438 47.8983 194.772 101.045 199.37 112.288" stroke="#E27E05" stroke-miterlimit="10"/>
<path d="M291.094 44.7037C291.087 44.8179 291.052 44.9284 290.991 45.0252C266.736 45.2327 235.736 46.3218 204.092 47.7427C167.933 49.3919 130.955 51.4871 102.248 53.2088V53.157C102.248 53.157 101.667 33.896 108.538 30.7014C108.538 30.7014 155.49 4.10734 212.851 7.97613C231.688 9.2519 285.407 11.0878 287.057 21.8333C287.036 21.8333 291.198 40.6793 291.094 44.7037Z" fill="#434443"/>
<path d="M219.732 13.9816C218.227 21.7088 213.682 45.1912 213.723 46.7678L270.867 45.4712C270.867 45.4712 282.231 30.9503 279.813 20.9101C279.522 19.6758 242.056 12.042 222.732 11.5752C222.028 11.5594 221.342 11.7921 220.793 12.2322C220.245 12.6724 219.869 13.2918 219.732 13.9816Z" fill="#D6E3DD"/>
<path d="M111.309 33.3981C114.952 30.4213 123.763 26.9363 128.288 25.2871C128.448 25.2255 128.622 25.2083 128.792 25.2373C128.961 25.2663 129.12 25.3405 129.25 25.4521C129.381 25.5636 129.479 25.7083 129.535 25.871C129.59 26.0336 129.6 26.2082 129.564 26.3762C128.817 30.3591 126.69 41.2705 125.631 41.9344C125.631 41.9344 114.215 44.9837 109.825 42.2766C109.825 42.2974 108.735 35.5036 111.309 33.3981Z" fill="#D6E3DD"/>
<path d="M126.627 36.0741C126.627 36.0741 131.069 44.7141 126.773 48.2821C126.773 48.2821 114.319 49.8586 114.173 41.4158C114.173 41.4158 115.055 33.9167 126.627 36.0741Z" fill="#2A2B2A"/>
<mask id="mask0_11_568" style="mask-type:luminance" maskUnits="userSpaceOnUse" x="213" y="11" width="68" height="36">
<path d="M219.732 13.9816C218.227 21.7088 213.682 45.1912 213.723 46.7678L270.867 45.4713C270.867 45.4713 282.231 30.9503 279.813 20.9101C279.522 19.6759 242.056 12.042 222.732 11.5753C222.028 11.5594 221.342 11.7921 220.793 12.2322C220.245 12.6724 219.869 13.2919 219.732 13.9816Z" fill="white"/>
</mask>
<g mask="url(#mask0_11_568)">
<g opacity="0.57">
<path d="M263.225 7.38908L259.107 3.71333L219.541 47.9851L223.659 51.6608L263.225 7.38908Z" fill="white"/>
<path d="M279.39 15.392L270.194 7.18375L230.628 51.4555L239.824 59.6638L279.39 15.392Z" fill="white"/>
</g>
</g>
<path d="M135.532 21.771C143.835 18.8565 179.329 7.2501 202.681 10.9114C202.857 10.9456 203.025 11.0153 203.174 11.1161C203.322 11.217 203.449 11.347 203.546 11.4983C203.643 11.6496 203.709 11.819 203.738 11.9963C203.768 12.1735 203.761 12.3549 203.718 12.5295C202.463 17.7778 197.917 36.6861 195.312 44.683C195.085 45.3887 194.649 46.0088 194.062 46.4608C193.474 46.9129 192.762 47.1755 192.022 47.2138L132.055 50.5121L128.547 41.0216L133.083 24.2188C133.281 23.6533 133.604 23.1396 134.028 22.7159C134.452 22.2921 134.966 21.9692 135.532 21.771Z" fill="#D6E3DD"/>
<mask id="mask1_11_568" style="mask-type:luminance" maskUnits="userSpaceOnUse" x="128" y="10" width="76" height="41">
<path d="M135.532 21.771C143.835 18.8565 179.329 7.25011 202.681 10.9115C202.857 10.9456 203.025 11.0153 203.174 11.1162C203.322 11.217 203.449 11.3471 203.546 11.4983C203.643 11.6496 203.709 11.819 203.738 11.9963C203.768 12.1735 203.761 12.3549 203.718 12.5295C202.463 17.7778 197.917 36.6861 195.312 44.683C195.085 45.3887 194.649 46.0088 194.062 46.4608C193.474 46.9129 192.762 47.1755 192.022 47.2138L132.055 50.5121L128.547 41.0216L133.083 24.2188C133.281 23.6533 133.604 23.1396 134.028 22.7159C134.452 22.2921 134.966 21.9692 135.532 21.771Z" fill="white"/>
</mask>
<g mask="url(#mask1_11_568)">
<g opacity="0.56">
<path d="M184.891 4.25273L181.022 1.15016L135.871 57.393L139.74 60.4955L184.891 4.25273Z" fill="white"/>
<path d="M208.762 12.8078L193.681 0.715561L148.53 56.9584L163.611 69.0506L208.762 12.8078Z" fill="white"/>
</g>
</g>
</g>
<defs>
<clipPath id="clip0_11_568">
<rect width="345" height="143" fill="white"/>
</clipPath>
</defs>
</svg>
