<?xml version="1.0" standalone="no"?>
<!DOCTYPE svg PUBLIC "-//W3C//DTD SVG 20010904//EN"
 "http://www.w3.org/TR/2001/REC-SVG-20010904/DTD/svg10.dtd">
<svg version="1.0" xmlns="http://www.w3.org/2000/svg"
 width="1280.000000pt" height="629.000000pt" viewBox="0 0 1280.000000 629.000000"
 preserveAspectRatio="xMidYMid meet">

<g transform="translate(0.000000,629.000000) scale(0.100000,-0.100000)"
fill="#000000" stroke="none">
<path d="M6205 6210 c-619 -66 -1162 -447 -1436 -1005 -399 -815 -133 -1795
625 -2300 533 -355 1214 -400 1792 -120 535 259 913 776 999 1366 29 201 16
496 -31 684 -172 692 -717 1212 -1418 1351 -137 27 -395 39 -531 24z m477
-350 c512 -105 938 -493 1107 -1010 59 -182 74 -276 46 -287 -10 -3 -59 21
-123 59 -151 91 -211 123 -315 170 -344 152 -650 218 -1007 218 -469 0 -891
-123 -1322 -387 -110 -67 -128 -68 -128 -10 0 53 39 199 85 319 199 514 671
887 1201 948 115 13 342 3 456 -20z m-128 -1105 c197 -94 278 -316 187 -510
-112 -240 -427 -295 -614 -108 -142 141 -152 354 -25 516 101 127 303 173 452
102z m-1453 -509 c185 -48 342 -116 479 -209 333 -223 560 -566 639 -966 12
-57 21 -107 21 -111 0 -18 -32 -18 -114 0 -529 116 -941 483 -1110 990 -37
112 -76 287 -69 308 7 18 50 15 154 -12z m2739 -1 c0 -42 -30 -173 -62 -275
-42 -131 -114 -281 -189 -392 -72 -106 -259 -299 -360 -371 -88 -61 -254 -149
-354 -185 -103 -38 -293 -85 -313 -77 -19 7 -12 65 27 218 51 196 141 385 260
542 122 162 324 328 512 422 153 75 357 141 442 143 33 0 37 -3 37 -25z"/>
<path d="M6282 4683 c-55 -19 -137 -99 -162 -158 -29 -68 -27 -174 4 -241 105
-225 423 -230 536 -8 35 68 36 198 2 261 -31 59 -86 111 -146 139 -61 28 -165
31 -234 7z"/>
<path d="M4235 3538 c-681 -89 -1323 -195 -1935 -318 -394 -79 -879 -185 -888
-195 -15 -15 17 -17 90 -6 755 109 1599 193 2368 236 489 27 480 26 495 42 19
19 21 223 3 241 -13 13 -32 13 -133 0z"/>
<path d="M8422 3528 c-8 -8 -12 -48 -12 -114 0 -114 9 -134 59 -134 40 0 681
-38 846 -50 512 -38 1191 -109 1675 -176 343 -47 357 -49 345 -36 -15 16 -520
130 -965 218 -578 114 -1140 207 -1719 284 -178 23 -213 24 -229 8z"/>
<path d="M9063 2635 c-129 -64 -166 -224 -80 -337 125 -163 388 -87 405 118
15 175 -167 297 -325 219z"/>
<path d="M10695 2555 l-25 -24 0 -285 c0 -184 -4 -287 -10 -291 -6 -4 -54 12
-107 35 -168 72 -287 87 -414 52 -90 -25 -152 -63 -224 -137 -134 -137 -210
-333 -222 -571 -13 -267 54 -481 198 -625 192 -193 437 -197 736 -13 l42 26
47 -51 c62 -68 110 -85 213 -78 44 3 92 11 108 19 l28 13 3 960 2 960 -21 18
c-18 14 -43 17 -176 17 -150 0 -155 -1 -178 -25z m-158 -861 c63 -30 107 -81
129 -148 14 -42 16 -78 10 -255 -9 -234 -19 -274 -87 -336 -57 -51 -103 -68
-189 -69 -91 0 -141 16 -191 61 -90 81 -100 126 -90 383 6 148 12 205 25 235
19 45 77 110 119 131 75 39 190 38 274 -2z"/>
<path d="M5289 2355 c-123 -25 -173 -44 -183 -70 -3 -9 -6 -65 -6 -123 0 -59
-4 -113 -8 -119 -5 -7 -30 -16 -58 -19 -111 -15 -138 -53 -132 -184 5 -115 21
-140 84 -140 48 0 103 -22 105 -43 1 -6 2 -163 3 -347 2 -286 5 -344 20 -400
52 -189 176 -305 369 -347 129 -27 328 -2 373 48 27 30 34 217 9 255 -16 24
-18 25 -103 18 -111 -8 -190 12 -239 61 l-33 33 0 351 c0 336 1 351 19 361 11
5 84 10 164 10 137 0 144 1 165 23 20 21 22 34 22 135 0 156 5 152 -193 152
-106 0 -157 4 -165 12 -8 8 -12 59 -12 166 0 86 -5 162 -10 173 -14 25 -43 24
-191 -6z"/>
<path d="M4125 2053 c-105 -23 -257 -103 -309 -161 -27 -31 -54 -28 -62 6 -14
63 -27 93 -45 102 -11 6 -80 9 -166 8 l-148 -3 -3 -689 c-1 -500 1 -693 9
-702 15 -19 359 -20 377 -2 9 9 12 123 12 451 0 286 4 453 11 482 6 24 26 62
45 84 49 56 106 76 224 76 84 0 99 -3 129 -24 18 -13 43 -45 55 -70 20 -44 21
-63 26 -523 3 -262 8 -479 11 -483 4 -3 89 -6 189 -6 140 0 185 3 192 13 4 7
7 240 5 518 -3 473 -4 509 -23 576 -53 181 -164 296 -329 339 -56 14 -155 18
-200 8z"/>
<path d="M6610 2044 c-165 -36 -338 -158 -437 -307 -243 -365 -133 -869 237
-1087 355 -209 794 -70 987 314 92 182 105 407 34 606 -40 114 -85 184 -181
280 -71 72 -100 93 -180 132 -154 75 -305 96 -460 62z m264 -338 c118 -69 186
-215 186 -402 0 -252 -124 -428 -301 -426 -70 0 -121 25 -178 87 -144 156
-161 462 -37 642 87 126 218 165 330 99z"/>
<path d="M8490 2049 c-90 -15 -177 -63 -251 -141 -92 -95 -119 -92 -119 16 0
87 0 87 -185 84 l-160 -3 -3 -694 c-2 -549 0 -696 10 -703 18 -11 340 -10 358
2 13 8 15 64 15 407 l0 398 33 66 c55 113 147 177 287 199 39 6 93 9 120 5 84
-10 89 -1 93 156 5 178 1 196 -46 209 -43 11 -75 11 -152 -1z"/>
<path d="M11952 2050 c-268 -49 -476 -259 -558 -565 -26 -97 -26 -322 -1 -415
34 -120 84 -208 172 -296 146 -147 339 -218 590 -218 131 1 238 18 363 59 107
36 112 43 112 176 0 97 -2 111 -21 130 -13 13 -29 19 -42 16 -12 -3 -75 -19
-140 -36 -206 -54 -341 -51 -463 9 -92 45 -194 156 -194 212 0 59 -10 58 474
58 366 0 445 2 462 14 17 13 19 27 19 158 0 162 -15 235 -72 353 -80 167 -222
281 -413 330 -78 20 -217 27 -288 15z m260 -333 c81 -47 138 -141 138 -228 l0
-39 -285 0 -285 0 0 28 c0 97 71 204 165 249 43 21 61 24 136 21 71 -3 93 -9
131 -31z"/>
<path d="M754 2036 c-70 -20 -151 -57 -218 -100 -31 -20 -62 -36 -70 -36 -7 0
-25 18 -39 39 -17 26 -45 48 -82 66 -51 25 -63 27 -134 22 -44 -3 -92 -11
-108 -19 l-28 -13 -6 -295 c-3 -162 -7 -595 -8 -961 -1 -522 2 -669 12 -677
14 -12 312 -19 345 -8 13 4 27 19 33 33 5 13 9 147 9 298 0 187 3 276 11 281
6 3 45 -10 87 -30 347 -162 640 -58 794 283 71 155 103 390 79 562 -39 271
-167 461 -362 540 -70 28 -239 36 -315 15z m126 -354 c62 -31 114 -91 130
-153 15 -54 3 -397 -15 -464 -17 -61 -71 -127 -129 -158 -33 -18 -57 -22 -131
-22 -81 0 -95 3 -143 29 -60 33 -107 91 -123 151 -15 52 -3 409 15 470 49 160
233 229 396 147z"/>
<path d="M1750 2000 c-13 -8 -15 -74 -14 -497 0 -419 3 -499 17 -563 66 -296
314 -445 603 -361 59 17 140 63 209 117 77 63 87 61 100 -17 12 -69 36 -79
194 -79 93 0 141 4 149 12 9 9 12 176 12 689 0 603 -2 679 -16 693 -23 24
-345 24 -368 0 -14 -14 -16 -69 -16 -452 0 -463 -3 -491 -47 -551 -48 -63
-180 -103 -288 -87 -58 9 -117 59 -133 114 -8 25 -14 202 -18 507 -5 324 -10
472 -18 477 -16 11 -349 9 -366 -2z"/>
<path d="M8884 1989 c-15 -17 -19 -36 -19 -103 0 -77 3 -87 45 -171 l45 -90 3
-505 c2 -382 6 -506 15 -512 21 -13 361 -10 375 4 9 9 12 178 12 699 0 617 -2
687 -16 693 -9 3 -111 6 -228 6 -204 0 -214 -1 -232 -21z"/>
</g>
</svg>
