<svg width="523" height="1181" viewBox="0 0 523 1181" fill="none" xmlns="http://www.w3.org/2000/svg">
<g filter="url(#filter0_d_12_20)">
<path d="M328.5 365L388 476.5V514L355 630.5H388L405 651L388 668H355V887.5L364.5 907.5L346 926H328.5V951H346L355 965L364.5 977.5V994.5L355 1024H328.5V1080L307 1091V1111L299 1161L257 1172L229 1144V1111V1091L196.5 1069V1032L170 1024L157.5 1013.5V977.5L170 965L181 951H196.5V926L170 917V887.5L157.5 668H117L106.5 651L125 630.5H157.5V592L134.5 514V476.5L196.5 365L181 352.5H170H146.5L134.5 365L48.5 386.5L31.5 365V352.5L117 329L157.5 316.5L146.5 291.5L100 285.5L76.5 302.5H31.5L5 291.5L16 271.5H48.5V257.5L157.5 271.5L170 242L188.5 240.5L210.5 257.5V204.5L229 195.5V50.5L241.5 15L257 1H272.5L307 50.5V204.5L316 221.5V257.5L346 231L378.5 271.5L475 257.5L518.5 285.5V302.5H464L420.5 285.5H388L378.5 316.5L495 352.5V375.5L475 394.5L355 352.5L328.5 365Z" fill="black"/>
<path d="M328.5 365L388 476.5V514L355 630.5H388L405 651L388 668H355V887.5L364.5 907.5L346 926H328.5V951H346L355 965L364.5 977.5V994.5L355 1024H328.5V1080L307 1091V1111L299 1161L257 1172L229 1144V1111V1091L196.5 1069V1032L170 1024L157.5 1013.5V977.5L170 965L181 951H196.5V926L170 917V887.5L157.5 668H117L106.5 651L125 630.5H157.5V592L134.5 514V476.5L196.5 365L181 352.5H170H146.5L134.5 365L48.5 386.5L31.5 365V352.5L117 329L157.5 316.5L146.5 291.5L100 285.5L76.5 302.5H31.5L5 291.5L16 271.5H48.5V257.5L157.5 271.5L170 242L188.5 240.5L210.5 257.5V204.5L229 195.5V50.5L241.5 15L257 1H272.5L307 50.5V204.5L316 221.5V257.5L346 231L378.5 271.5L475 257.5L518.5 285.5V302.5H464L420.5 285.5H388L378.5 316.5L495 352.5V375.5L475 394.5L355 352.5L328.5 365Z" stroke="black"/>
</g>
<defs>
<filter id="filter0_d_12_20" x="0.29303" y="0.5" width="522.707" height="1180.06" filterUnits="userSpaceOnUse" color-interpolation-filters="sRGB">
<feFlood flood-opacity="0" result="BackgroundImageFix"/>
<feColorMatrix in="SourceAlpha" type="matrix" values="0 0 0 0 0 0 0 0 0 0 0 0 0 0 0 0 0 0 127 0" result="hardAlpha"/>
<feOffset dy="4"/>
<feGaussianBlur stdDeviation="2"/>
<feComposite in2="hardAlpha" operator="out"/>
<feColorMatrix type="matrix" values="0 0 0 0 0 0 0 0 0 0 0 0 0 0 0 0 0 0 0.25 0"/>
<feBlend mode="normal" in2="BackgroundImageFix" result="effect1_dropShadow_12_20"/>
<feBlend mode="normal" in="SourceGraphic" in2="effect1_dropShadow_12_20" result="shape"/>
</filter>
</defs>
</svg>
