<svg xmlns="http://www.w3.org/2000/svg" version="1.1" viewBox="-5.0 -10.0 110.0 135.0">
 <path d="m77.773 47.922c-0.50781 0-1.0195 0.039063-1.5273 0.089844l-2.1953-6.7539c0.95312 0.12891 1.9805 0.22266 3.1016 0.26563h0.089844c0.53906 0 1.0469-0.20313 1.4414-0.58203 0.34766-0.33203 0.55469-0.76562 0.61328-1.2344 0.078125 0.050781 0.16797 0.089844 0.26953 0.10156 1.2188 0 2.2539-0.62891 2.9141-1.7734 0.98828-1.7109 0.98438-4.2969-0.007813-6.0156-0.67578-1.1719-1.7383-1.8164-2.9922-1.8164-0.054688 0-0.10938 0.015625-0.15625 0.03125v-0.1875c0-0.57031-0.22656-1.1055-0.64453-1.5-0.41406-0.39453-0.98047-0.60547-1.5508-0.57812-3.0117 0.14062-5.4375 0.65625-7.3398 1.3867l-1.707-5.25c-0.28125-0.85938-1.0742-1.4336-1.9766-1.4336l-12 0.003906c-1.1445 0-2.0781 0.93359-2.0781 2.0781 0 1.1445 0.93359 2.0781 2.0781 2.0781h8.8359c0.47266 0 0.88672 0.30469 1.0273 0.75391l1.4961 4.7344c-0.63281 0.83984-0.94922 1.7227-0.94922 2.5742 0 0.55859 0.14062 1.1445 0.42188 1.7227l-0.65234 1.1562c-0.67969-1.8867-2.0938-3.2188-4.1328-3.957-0.097656-1.3867-1.2617-2.0742-2.3945-2.1328-1.0586-0.050782-2.1914 0.44531-2.4922 1.4883-6.6133 0.24219-14.895 3.9219-17.875 7.543l-0.13281-0.46484c-0.39062-1.3672-1.6562-2.3203-3.0742-2.3203h-20.512c-1.7617 0-3.1953 1.4336-3.1953 3.1992v1.2461c-1.75 0.050781-2.6094 0.99609-2.9727 1.5859-0.64062 1.0352-0.67188 2.3867-0.078125 3.4453 0.55469 0.99609 1.5781 1.5664 2.8086 1.6133 0.21875 0.66016 0.54688 1.2461 0.99219 1.7227 0.62891 0.67187 1.4492 1.0977 2.4023 1.2617-2.9062 2.6797-4.7305 6.4453-4.7305 10.625 0 8.1055 6.832 14.703 15.227 14.703 7.1406 0 13.363-4.8594 14.875-11.57h15.637c0.82812 0 1.5859-0.45312 1.9844-1.1797l12.199-22.523 2.3242 7.3438c-0.015625 0.003906-0.03125 0.003906-0.046875 0.011718-5.2734 2.4883-8.5547 7.5508-8.5547 13.219 0 8.1055 6.832 14.703 15.227 14.703 8.3984-0.011719 15.23-6.6055 15.23-14.711 0-8.1094-6.832-14.703-15.227-14.703zm1.7109-16.715c1.1289 0 1.7812 0.71484 2.125 1.3164 0.8125 1.4102 0.81641 3.6133 0.007813 5.0156-0.33594 0.58203-0.96484 1.2734-2.0469 1.2734h-0.003906l-0.003906-0.003906c-0.085938 0-0.16797 0.027344-0.23828 0.070312v-7.7031c0.050781 0.015625 0.10156 0.03125 0.16016 0.03125zm-13.969 3.6836c-0.007813-2.6055 3.8164-5.4102 11.121-5.8789l0.11719 11.488c-7.7422-0.41797-11.23-3.0938-11.238-5.6094zm12.809-4.8359v9.3906c0 0.29688-0.11719 0.57031-0.33203 0.77734-0.070313 0.066406-0.15625 0.10547-0.23828 0.14844l-0.11719-11.324c0.12891 0.050781 0.25 0.12891 0.35547 0.22656 0.21484 0.20703 0.33203 0.48437 0.33203 0.78125zm-15.383-4.2227h-8.8359c-0.59375 0-1.0781-0.48438-1.0781-1.0781s0.48438-1.0781 1.0781-1.0781h12.004c0.46875 0 0.87891 0.30078 1.0234 0.74219l1.7344 5.332c-1.0781 0.50391-1.957 1.0781-2.625 1.6992l-1.3164-4.168c-0.27734-0.86719-1.0742-1.4492-1.9844-1.4492zm-5.2344 6.8477c0.52344 0.027343 1.125 0.26562 1.3555 0.8125-0.18359-0.042969-0.35547-0.097657-0.54688-0.13281-0.67969-0.125-1.4102-0.17578-2.1562-0.19141 0.27734-0.35547 0.82812-0.51953 1.3477-0.48828zm0.62891 1.6641c2.957 0.53516 4.7227 2.1055 5.2539 4.6523l-3.8555 6.8242h-20.918c0.003906-0.054687 0.003906-0.10937-0.011718-0.16406l-1.0664-3.7344c2.6172-4.1133 13.863-8.8008 20.598-7.5781zm-46.859 11.449v-4.2383c0.007813 0 0.015626 0.003906 0.027344 0.003906h25.094l1.2188 4.2578-26.348 0.003906c0-0.011718 0.007812-0.019531 0.007812-0.027343zm2.1953-6.8633h20.516c0.97656 0 1.8438 0.65625 2.1133 1.5938l0.011719 0.035156h-24.754c0.25391-0.9375 1.1016-1.6289 2.1133-1.6289zm-5.375 7.9883c-0.41797-0.75-0.39453-1.7031 0.054687-2.4336 0.42188-0.68359 1.1797-1.0586 2.1211-1.1016v2.4062c0 0.007813 0.003906 0.015626 0.003906 0.027344h-0.03125c-0.25781 0-0.47656 0.19531-0.5 0.45312-0.054687 0.60547-0.035156 1.1758 0.042969 1.7188-0.74609-0.09375-1.3477-0.45312-1.6914-1.0703zm6.3477 4.1602c-1.1016 0.03125-2.043-0.32812-2.6914-1.0234-0.71094-0.75781-1.0703-1.8984-1.0352-3.2383h48.25l-1.8125 3.207-11.141 0.003906c-0.27734 0-0.5 0.22266-0.5 0.5s0.22266 0.5 0.5 0.5h10.578l-1.2188 2.1562-12.516-0.003906c-0.27734 0-0.5 0.22266-0.5 0.5 0 0.27734 0.22266 0.5 0.5 0.5h11.949l-1.8125 3.207h-9.7266c-0.74609 0-1.4414-0.37109-1.8555-0.99219l-2.5859-3.8789c-0.60156-0.89844-1.6055-1.4375-2.6875-1.4375h-2.5859c-0.050781 0-0.097656 0.015625-0.14062 0.027344-2.6094-2-5.9062-3.1836-9.4883-3.1836-3.5547 0-6.8203 1.1914-9.4141 3.168-0.023438-0.003906-0.042969-0.011719-0.066407-0.011719zm24.457 8.9414c-0.57812-3.1289-2.1328-5.8633-4.3438-7.9414h1.5781c0.74609 0 1.4414 0.37109 1.8555 0.99219l2.5859 3.8789c0.60156 0.89844 1.6055 1.4375 2.6875 1.4375h9.1602l-0.5625 0.99219c-0.22266 0.39453-0.64062 0.63672-1.0938 0.63672zm-14.977 16.305c-7.8438 0-14.227-6.1484-14.227-13.703 0-7.5508 6.3828-13.699 14.227-13.699 6.8906 0 12.672 4.6406 13.957 11.098h-4.6484c-1.1953-4.043-5-6.8359-9.3867-6.8359-5.3906 0-9.7734 4.2344-9.7734 9.4414s4.3828 9.4414 9.7734 9.4414c4.1836 0 7.8398-2.5234 9.2148-6.3125h4.7031c-1.4922 6.1445-7.2422 10.57-13.84 10.57zm-0.35156-10.57h8.3906c-1.3242 3.1953-4.4883 5.3125-8.1211 5.3125-4.8359 0-8.7734-3.7891-8.7734-8.4414 0-4.6562 3.9375-8.4414 8.7734-8.4414 3.8398 0 7.1836 2.375 8.3438 5.8359h-8.6133c-1.2422 0-2.2539 1.0117-2.2539 2.2539v1.2227c0 1.2461 1.0117 2.2578 2.2539 2.2578zm31.969-1.6602c-0.21875 0.40625-0.64453 0.65625-1.1055 0.65625l-30.863 0.003906c-0.69141 0-1.2539-0.5625-1.2539-1.2539v-1.2227c0-0.69141 0.5625-1.2539 1.2539-1.2539h27.203c0.8125 0 1.5625-0.4375 1.9609-1.1445l12.609-22.309c0.69531 0.85938 1.7734 1.668 3.2969 2.332zm13.742-23.25c0-0.003906-0.003906-0.007812-0.007813-0.011719l0.30469-0.5625c0.91016 0.32422 1.9531 0.59766 3.1406 0.80859l7.6992 23.645c0.097656 0.29688 0.066406 0.60938-0.085938 0.88281-0.15234 0.27344-0.40234 0.46484-0.70312 0.53906l-1.1523 0.28906c-0.56641 0.14062-1.1562-0.18359-1.332-0.74219l-7.6797-24.316zm6.9141 25.148c0.28125 0.89453 1.1133 1.4766 2.0156 1.4766 0.16797 0 0.33984-0.019531 0.51172-0.0625l1.1523-0.28906c0.56641-0.14063 1.0547-0.51563 1.3359-1.0273 0.28125-0.51172 0.34375-1.1211 0.16016-1.6797l-3.0977-9.5273c4.8828 0.078126 8.832 3.918 8.832 8.6367 0 4.7656-4.0312 8.6445-8.9844 8.6445s-8.9844-3.8789-8.9844-8.6445c0-2.8867 1.5273-5.5742 4.0039-7.1719zm1.375 10.332c-7.8438 0-14.227-6.1484-14.227-13.703 0-5.2461 3.0273-9.9375 7.9023-12.273l1.5859 5.0156c-2.8945 1.7578-4.6914 4.8398-4.6914 8.1602 0 5.3203 4.4805 9.6445 9.9844 9.6445s9.9844-4.3281 9.9844-9.6445c0-5.3203-4.4805-9.6445-9.9844-9.6445-0.058594 0-0.11719 0.003906-0.17578 0.003906l-1.5898-4.8906c0.40234-0.03125 0.80469-0.070313 1.2109-0.070313 7.8438 0 14.227 6.1484 14.227 13.703s-6.3828 13.699-14.227 13.699z"/>
<text x="0.0" y="117.5" font-size="5.0" font-weight="bold" font-family="Arbeit Regular, Helvetica, Arial-Unicode, Arial, Sans-serif" fill="#000000">Created by Kael</text><text x="0.0" y="122.5" font-size="5.0" font-weight="bold" font-family="Arbeit Regular, Helvetica, Arial-Unicode, Arial, Sans-serif" fill="#000000">from Noun Project</text></svg>