<svg width="25" height="24" viewBox="0 0 25 24" fill="none" xmlns="http://www.w3.org/2000/svg">
<path d="M24.5 12C24.5 5.37258 19.1274 0 12.5 0C5.87258 0 0.5 5.37258 0.5 12C0.5 18.6274 5.87258 24 12.5 24C19.1274 24 24.5 18.6274 24.5 12Z" fill="white"/>
<path fill-rule="evenodd" clip-rule="evenodd" d="M18.3723 12.1364C18.3723 11.7109 18.3341 11.3018 18.2632 10.9091H12.6123V13.23H15.8414C15.7023 13.98 15.2796 14.6155 14.6441 15.0409V16.5464H16.5832C17.7178 15.5019 18.3723 13.9637 18.3723 12.1364Z" fill="#4285F4"/>
<path fill-rule="evenodd" clip-rule="evenodd" d="M12.6123 18C14.2323 18 15.5905 17.4627 16.5832 16.5463L14.6441 15.0409C14.1069 15.4009 13.4196 15.6136 12.6123 15.6136C11.0496 15.6136 9.72686 14.5581 9.25504 13.14H7.25049V14.6945C8.23776 16.6554 10.2669 18 12.6123 18Z" fill="#34A853"/>
<path fill-rule="evenodd" clip-rule="evenodd" d="M9.25504 13.14C9.13504 12.78 9.06686 12.3954 9.06686 12C9.06686 11.6045 9.13504 11.22 9.25504 10.86V9.30542H7.25049C6.84412 10.1154 6.6123 11.0318 6.6123 12C6.6123 12.9682 6.84412 13.8845 7.25049 14.6945L9.25504 13.14Z" fill="#FBBC05"/>
<path fill-rule="evenodd" clip-rule="evenodd" d="M12.6123 8.38637C13.4932 8.38637 14.2841 8.6891 14.906 9.28364L16.6269 7.56273C15.5878 6.59455 14.2296 6 12.6123 6C10.2669 6 8.23776 7.34455 7.25049 9.30546L9.25504 10.86C9.72686 9.44183 11.0496 8.38637 12.6123 8.38637Z" fill="#EA4335"/>
</svg>
